<?xml version="1.0" encoding="UTF-8" standalone="no"?>
<svg
        xmlns="http://www.w3.org/2000/svg"
        id="svg3947"
        xml:space="preserve"
        viewBox="0 0 159.97212 43.006931"
        version="1.1">
   <defs
           id="defs3951"/>
    <g
            style="display:inline;opacity:1"
            id="g3945"
            transform="matrix(1.3333333,0,0,-1.3333333,-530.27685,1058.5805)"><g
       style="fill:#102d5d"
       id="g3931"><path
         id="path3927"
         d="m 397.70765,765.77142 c 2.225,-2.385 5.182,-3.949 9.206,-4.032 4.332,-0.09 9.177,2.516 9.175,7.647 -0.002,5.363 -4.23,6.957 -8.355,8.541 -2.635,1.013 -7.142,2.415 -7.143,6.936 -10e-4,3.413 3.031,5.702 6.913,5.613 2.23,-0.051 4.452,-1.13 6.61,-2.917 l 1.18,1.358 c -2.619,2.301 -5.318,3.298 -7.842,3.353 -4.838,0.104 -8.788,-2.736 -8.786,-7.408 0.002,-5.717 4.969,-7.278 8.053,-8.503 3.569,-1.416 7.41,-2.796 7.411,-6.974 10e-4,-3.377 -3.151,-5.94 -7.43,-5.821 -3.058,0.086 -5.433,1.119 -7.628,3.451 z" /><path
            id="path3929"
            d="m 439.56865,762.45412 h 1.901 v 29.11 h -1.901 v -13.159 h -15.237 v 13.159 h -1.901 v -29.11 h 1.901 v 14.161 h 15.237 z"/></g>
        <path
                style="fill:#da1354"
                id="path3933"
                d="m 517.67175,791.60652 h -4.628 l -2.468,-4.544 -0.992,4.544 -1.736,-4.544 -1.738,4.544 -0.993,-4.544 -2.468,4.544 h -4.629 l -0.014,-3.78 5.644,-2.304 -5.579,-2.449 5.725,-1.969 -5.371,-2.772 5.8,-1.429 -4.975,-3.271 5.716,-0.619 -4.174,-3.885 5.538,-0.002 -2.883,-3.983 4.401,-3.421 4.399,3.421 -2.883,3.983 5.537,0.002 -4.173,3.885 5.716,0.619 -4.976,3.271 5.8,1.429 -5.371,2.772 5.726,1.969 -5.579,2.449 5.643,2.304 z"/>
        <g
                style="fill:#102d5d"
                id="g3943"><path
         id="path3935"
         d="m 476.72625,765.31022 -2.353,0.586 1.785,0.408 -0.085,0.451 1.229,0.033 c 0,0 -0.791,1.061 -1.817,0.981 l -2.274,-1.161 c -0.307,0.128 -2.869,2.617 -2.869,2.617 0,0 2.05,1.983 0.91,3.394 -0.277,0.345 -2.793,1.71 -3.061,1.71 -0.277,0 -2.507,-1.915 -2.507,-1.915 0.85,-0.659 1.614,-1.648 1.505,-2.541 -0.074,-0.603 -0.931,-1.266 -0.931,-1.266 -0.134,-0.381 5.142,-3.281 5.142,-3.281 l -0.566,-0.53 c -0.521,-0.559 -0.239,-1.22 -0.239,-1.22 l 0.753,0.574 0.19,-0.246 0.907,0.698 0.361,-1.699 0.526,0.058 0.164,-1.281 c 0.987,0.325 1.044,1.768 1.044,1.768 l -0.669,1.652 2.206,-1.688 0.287,0.645 1.129,-0.353 c 0,0 -0.262,1.017 -0.767,1.606" />
            <path
                    id="path3937"
                    d="m 492.07605,785.41542 -1.663,-0.229 1.348,1.586 -0.55,0.561 0.738,1.05 c 0,0 -1.279,0.125 -1.903,-0.842 l -1.1,-2.671 0.009,2.073 c -0.053,-0.02 -0.502,-0.002 -0.581,-0.009 l -0.127,1.28 c 0,0 -1,-0.466 -1.115,-2.099 l 1.002,-1.812 -4.478,-5.71 c 0.008,-0.01 0.009,-0.012 0.01,-0.014 0.681,-0.942 0.853,-1.717 0.953,-2.179 l 0.027,-0.121 0.365,-1.676 4.442,6.956 1.261,-0.802 c 0.721,0.035 1.061,0.976 1.061,0.976 l -1.112,0.408 -0.188,1.595 1.3,-0.089 0.237,0.413 1.416,-0.201 c -0.131,1.109 -0.762,1.408 -1.352,1.556"/>
            <path
                    id="path3939"
                    d="m 479.14985,784.71342 c -0.113,0.069 -0.147,0.214 -0.08,0.335 0.242,0.379 0.848,1.261 1.309,1.347 0.111,0.019 0.22,0.029 0.327,0.029 0.451,0 0.818,-0.167 1.184,-0.351 l 0.427,-0.209 c 0.12,-0.065 0.166,-0.211 0.106,-0.336 -0.052,-0.115 -0.212,-0.169 -0.329,-0.105 l -0.423,0.212 c -0.046,0.024 -0.088,0.046 -0.13,0.066 0.025,-0.081 0.037,-0.166 0.037,-0.252 0,-0.509 -0.412,-0.923 -0.92,-0.923 -0.423,0 -0.777,0.282 -0.882,0.678 -0.106,-0.139 -0.203,-0.277 -0.293,-0.414 -0.054,-0.107 -0.216,-0.15 -0.333,-0.077 m 13.197,-19.29 -2.055,0.86 1.386,0.102 c -0.019,0.051 0.185,0.64 0.179,0.719 l 1.572,0.161 c 0,0 -1.133,1.022 -2.059,0.921 l -2.332,-0.872 -5.893,4.594 c 0,0 1.298,0.232 2.044,0.561 0,0 -0.63,0.738 -0.81,1.724 l -0.404,1.857 c -0.101,0.435 -0.203,1.11 -0.848,1.995 -0.101,0.173 -0.728,0.805 -0.728,0.805 l -0.849,0.668 0.979,0.134 c 1.279,0.273 1.346,1.273 1.346,1.273 h -4.111 c 0,0 -0.017,0.254 -0.017,0.759 h 4.096 c 0.696,0 1.259,0.215 1.677,0.642 0.704,0.719 0.804,1.649 0.804,1.687 0,0.229 -0.183,0.401 -0.406,0.401 -0.226,-0.01 -0.4,-0.19 -0.397,-0.42 0,-0.002 -0.121,-0.64 -0.586,-1.1 -0.262,-0.265 -0.632,-0.394 -1.092,-0.394 h -4.073 c 0.018,0.12 0.023,0.06 0.05,0.13 0.124,0.421 0.607,0.587 1.103,0.591 0.91,0 1.889,0 3.101,0.046 0.556,0.011 0.841,0.915 0.841,0.915 0,0 0.256,1.458 0.256,1.666 0,0.212 -0.089,0.253 -0.343,0.341 -0.255,0.083 -1.278,0.338 -1.827,0.68 -0.552,0.337 -1.36,0.68 -1.815,0.68 h -2.502 c -0.383,0 -1.02,-0.462 -1.02,-0.462 0,0 -0.281,0.916 -0.971,1.154 l -1.024,0.353 0.409,-2.456 -0.63,-2.213 c 0,0 -1.202,-0.655 -1.665,-0.742 l -0.734,0.023 0.554,-0.562 c 0.202,-0.191 0.818,-0.186 1.435,-0.128 l -0.148,-0.488 c -0.049,-0.033 -1.162,-0.688 -1.596,-0.774 l -0.762,0.039 0.569,-0.579 c 0.193,-0.188 0.787,-0.188 1.383,-0.129 l -0.298,-1.009 c 0,0 -0.098,-0.911 -1.173,-0.911 -0.971,0 -13.127,1.437 -13.127,1.437 -0.868,0.083 -2.794,0.394 -2.794,2.036 0,1.536 1.513,1.776 2.899,1.776 l 9.914,0.006 c 2.696,0 4.01,1.383 4.133,4.083 0.106,2.294 1.467,3.211 2.308,3.211 h 4.113 c 1.175,0.544 1.956,2.721 1.956,2.721 0,0 -0.886,-0.308 -1.809,-0.576 h -4.719 c -1.007,0 -2.165,-1.419 -2.661,-3.062 h -0.002 c -0.497,1.643 -1.535,3.062 -2.662,3.062 h -4.718 c -0.923,0.268 -1.81,0.576 -1.81,0.576 0,0 0.782,-2.177 1.956,-2.721 h 4.114 c 0.87,0 2.307,-0.917 2.307,-3.211 0,-1.769 -0.821,-2.532 -2.494,-2.532 h -4.084 c 0.136,0.493 0.418,1.425 0.683,1.816 l 0.88,0.716 h -1.212 c -0.662,0 -1.868,-1.879 -2.308,-2.532 h -1.451 c 0.168,0.627 0.59,2.198 0.922,2.695 l 1.131,0.871 c 0,0 -0.56,-0.01 -1.558,-0.01 -0.846,0 -2.45,-2.768 -2.989,-3.556 -1.453,0 -4.427,-0.516 -4.427,-3.351 0,-2.266 2.081,-3.368 4.2,-3.631 0.083,-0.017 2.824,-0.357 2.824,-0.357 l -2.282,-5.101 c 0,0 -0.979,0.148 -1.204,0.041 -0.316,-0.148 -2.708,-5.954 -2.708,-5.954 l -1.593,-0.064 c -0.259,-0.103 -0.823,-0.683 -0.951,-0.94 -0.172,-0.348 -0.175,-0.689 -0.175,-0.689 l 0.915,0.322 0.405,-0.359 0.982,0.296 -0.811,-1.871 0.52,-0.539 -0.175,-1.524 c 0.818,0.076 1.441,1.376 1.441,1.376 l 0.077,1.909 0.704,-1.762 c 0.106,-0.009 0.106,-0.013 0.459,-0.045 l 0.921,-1.503 c 0,0 0.278,0.232 0.378,0.597 0.076,0.28 0.091,1.355 0.091,1.355 -0.3,0.357 -1.273,1.504 -1.273,1.504 l 1.64,-1.176 c 0.015,0.051 0.273,0.268 0.314,0.33 l 1.619,-0.635 c 0,0 -0.344,1.459 -0.768,1.791 l -2.695,1.044 6.352,5.994 c 1.498,1.277 2.839,2.372 3.514,2.459 0.703,0.093 6.089,-3.46 7.05,-3.601 0.735,-0.108 1.902,0.027 1.902,0.027 0,0 -0.153,-0.857 -0.032,-1.05 0.302,-0.612 9.516,-4.143 9.516,-4.143 l -1.156,-0.688 c -0.397,-0.251 -0.636,-1.44 -0.636,-1.44 l 1.465,0.808 0.337,-0.471 1.193,0.954 -0.178,-1.594 0.547,-0.071 0.036,-1.994 c 0.756,0.321 1.22,1.864 1.22,1.864 l -0.017,1.498 1.551,-1.386 0.573,0.535 1.357,-0.647 c 0,0 -0.051,1.374 -0.556,1.834"/>
            <path
                    id="path3941"
                    d="m 480.66435,784.99512 c 0.253,0 0.46,0.205 0.46,0.46 0,0.253 -0.207,0.46 -0.46,0.46 -0.253,0 -0.463,-0.207 -0.463,-0.46 0,-0.255 0.21,-0.46 0.463,-0.46"/></g></g></svg>