<svg width="166" height="37" viewBox="0 0 166 37" fill="none" xmlns="http://www.w3.org/2000/svg">
<g clip-path="url(#clip0_412_492)">
<mask id="mask0_412_492" style="mask-type:luminance" maskUnits="userSpaceOnUse" x="0" y="0" width="37" height="37">
<path d="M30.3883 0H6.50986C2.91456 0 0 2.91433 0 6.50934V30.3859C0 33.9809 2.91456 36.8953 6.50986 36.8953H30.3883C33.9836 36.8953 36.8982 33.9809 36.8982 30.3859V6.50934C36.8982 2.91433 33.9836 0 30.3883 0Z" fill="white"/>
</mask>
<g mask="url(#mask0_412_492)">
<path d="M20.4112 4.77263L18.8359 0.0538635L20.4112 4.77263Z" fill="#0099D7"/>
<path d="M8.65737 8.69036L5.77607 0.0538635H0V5.80928L8.65064 8.69036H8.65737Z" fill="#0099D7"/>
<path d="M34.7773 8.69034L36.8979 15.0449V15.0247L34.7841 8.67688L34.7773 8.69034Z" fill="#0099D7"/>
<path d="M28.2543 2.16082L21.9329 0.0538635H21.9194L28.2475 2.16082H28.2543Z" fill="#0099D7"/>
<path d="M28.2475 28.279V28.2924H28.2407L28.2475 28.2992L31.1355 36.9491H36.8981V31.16L28.2475 28.279Z" fill="#0099D7"/>
<path d="M23.3535 13.5841L20.4116 4.77261L23.3535 13.5841Z" fill="#0099D7"/>
<path d="M23.3535 13.5841L20.4116 4.77261L23.3535 13.5841Z" fill="#0081C4"/>
<path d="M28.2475 28.2924V28.279H28.2407L28.2475 28.2924Z" fill="#0099D7"/>
<path d="M28.2475 28.2924L28.2407 28.279H28.2475V28.2924Z" fill="#0081C4"/>
<path d="M34.7776 8.69034L34.7843 8.67687L33.1552 3.79655L36.0836 4.77261H36.0904L33.1552 3.78982L32.1723 0.854889H32.1656L33.1485 3.78982L28.2543 2.1608H28.2476L33.1485 3.79655L34.7776 8.69034Z" fill="#0099D7"/>
<path d="M34.7776 8.69034L33.1485 3.79655L28.2476 2.1608H28.2543L33.1485 3.78982L32.1656 0.854889H32.1723L33.1552 3.78982L36.0904 4.77261H36.0836L33.1552 3.79655L34.7843 8.67687L34.7776 8.69034Z" fill="#0081C4"/>
<path d="M13.5518 23.3852L16.4936 32.2101L13.5518 23.3986L28.2477 28.2924L13.5518 23.3919V23.3852Z" fill="#0099D7"/>
<path d="M16.4936 32.2101L13.5518 23.3852V23.3919L28.2477 28.2924H28.241L13.5518 23.3986L16.4936 32.2101Z" fill="#0081C4"/>
<path d="M3.77006 33.1774L3.76367 33.1795L4.74482 36.1236L4.7512 36.1214L3.77006 33.1774Z" fill="#0099D7"/>
<path d="M3.77006 33.1774L3.76367 33.1795L4.74482 36.1236L4.7512 36.1214L3.77006 33.1774Z" fill="#0081C4"/>
<path d="M8.6439 8.69707L8.65064 8.69034L0 5.80927V18.8616L4.72587 20.4368L8.6439 8.69707Z" fill="#0099D7"/>
<path d="M4.72587 20.4368L0 18.8616V6.50935C0 6.27375 0.013464 6.04488 0.0403921 5.81601L8.65737 8.69035H8.6439L4.73261 20.4368H4.72587Z" fill="#00A2DC"/>
<path d="M13.5517 23.3852L8.65084 8.69707H8.65757V8.69034H8.65084L8.64411 8.69707L4.72607 20.4368L13.545 23.3784L13.5517 23.3852Z" fill="#0099D7"/>
<path d="M13.5517 23.3852L13.545 23.3784L4.72607 20.4368L8.64411 8.69707L8.65084 8.69034H8.65757V8.69707H8.65084L13.5517 23.3852Z" fill="#008BCB"/>
<path d="M20.4113 4.77263L18.836 0.0538635H5.77588L8.65718 8.69036L20.4113 4.77263Z" fill="#0099D7"/>
<path d="M8.65718 8.69036L5.77588 0.0538635H18.836L20.4113 4.77263L8.65718 8.69036Z" fill="#00A2DC"/>
<path d="M8.66396 8.69707V8.7038L23.3397 13.5909V13.5774L23.3532 13.5841L20.4113 4.77261L8.65723 8.69034L8.66396 8.69707Z" fill="#0099D7"/>
<path d="M23.3397 13.5909L8.66396 8.7038V8.69707L8.65723 8.69034L20.4113 4.77261L23.3532 13.5841L23.3397 13.5774V13.5909Z" fill="#008BCB"/>
<path d="M8.66396 8.69707L8.65723 8.69034V8.69707L8.66396 8.7038V8.69707Z" fill="#0099D7"/>
<path d="M8.66396 8.7038L8.65723 8.69707V8.69034L8.66396 8.69707V8.7038Z" fill="#1B96D1"/>
<path d="M28.241 28.2924L16.4937 32.2101L18.0689 36.9491H31.1358L28.2477 28.2924H28.241Z" fill="#0099D7"/>
<path d="M30.3885 36.8953H18.0555L16.4937 32.2101L28.2477 28.2924L31.1021 36.8549C30.8665 36.8818 30.6309 36.8953 30.3885 36.8953Z" fill="#00A2DC"/>
<path d="M16.4936 32.2101L28.2477 28.2924L13.5518 23.3986L16.4936 32.2101Z" fill="#0099D7"/>
<path d="M16.4936 32.2101L13.5518 23.3986L28.2477 28.2924L16.4936 32.2101Z" fill="#008BCB"/>
<path d="M28.2476 28.279L36.8982 31.16V18.1077L32.1656 16.5325L28.2476 28.279Z" fill="#0099D7"/>
<path d="M36.8511 31.1466L28.2476 28.279L32.1656 16.5258L36.8982 18.101V30.3792C36.8982 30.635 36.8847 30.8908 36.8511 31.1398" fill="#00A2DC"/>
<path d="M23.3535 13.5909V13.5841L23.367 13.6245H23.3602L28.241 28.279H28.2477L32.1657 16.5325L23.3535 13.5909Z" fill="#0099D7"/>
<path d="M28.2477 28.279H28.241L23.3602 13.6245H23.367L23.3535 13.5841V13.5909L32.1657 16.5325L28.2477 28.279Z" fill="#008BCB"/>
<path d="M23.3398 13.5909L23.3466 13.5976L23.36 13.6245H23.3668L23.3533 13.5841L23.3398 13.5774V13.5909Z" fill="#0099D7"/>
<path d="M23.3668 13.6245H23.36L23.3466 13.5976L23.3398 13.5909V13.5774L23.3533 13.5841L23.3668 13.6245Z" fill="#1B96D1"/>
<path d="M32.1724 16.5258L36.8982 18.1009V15.0449L34.7844 8.69034L32.1724 16.5258Z" fill="#0099D7"/>
<path d="M36.8982 18.1009L32.1724 16.5258L34.7777 8.69034L36.8982 15.0449V18.1009Z" fill="#00ACE0"/>
<path d="M28.2474 2.16082L21.9193 0.0538635H18.8428L20.4113 4.77263L28.2474 2.16082Z" fill="#0099D7"/>
<path d="M20.4112 4.77263L18.8359 0.0538635H21.9192L28.2473 2.16082L20.4112 4.77263Z" fill="#00ACE0"/>
<path d="M32.1724 16.5258L34.7845 8.69034L33.1486 3.79655L28.2477 2.1608L20.4116 4.77261L23.3535 13.5841L32.1724 16.5258Z" fill="#0099D7"/>
<path d="M32.1724 16.5258L23.3535 13.5841L20.4116 4.77261L28.2477 2.1608L33.1486 3.79655L34.7845 8.69034L32.1724 16.5258Z" fill="#1E96D1"/>
<path d="M32.1655 16.5325L36.8981 18.1077V18.101L32.1723 16.5258L32.1655 16.5325Z" fill="#0099D7"/>
<path d="M36.8981 18.1077L32.1655 16.5325L32.1723 16.5258L36.8981 18.101V18.1077Z" fill="#3AB4E4"/>
<path d="M23.3535 13.5909L32.1657 16.5325V16.5258L23.3535 13.5841V13.5909Z" fill="#0099D7"/>
<path d="M32.1657 16.5325L23.3535 13.5909V13.5841L32.1725 16.5258L32.1657 16.5325Z" fill="#4CA0D6"/>
<path d="M32.1658 0.85491L31.9032 0.0538635H21.9331L28.2545 2.16082L32.1658 0.85491Z" fill="#0099D7"/>
<path d="M28.2545 2.16082L21.9331 0.0538635H31.2098C31.4589 0.0875209 31.708 0.134641 31.9503 0.195225L32.1725 0.861641L28.2545 2.16755V2.16082Z" fill="#00A6DD"/>
<path d="M32.1657 0.854889L28.2544 2.1608L33.1486 3.78982L32.1657 0.854889Z" fill="#0099D7"/>
<path d="M33.1486 3.78982L28.2544 2.1608L32.1657 0.854889L33.1486 3.78982Z" fill="#0090CE"/>
<path d="M34.7842 8.67687L36.898 15.0247V5.04187L36.0835 4.77261L34.7842 8.67687Z" fill="#0099D7"/>
<path d="M36.898 15.0247L34.7842 8.68362L36.0835 4.77936L36.7163 4.98803C36.8374 5.47943 36.898 5.99103 36.898 6.51608V15.0314V15.0247Z" fill="#00A6DD"/>
<path d="M34.7844 8.6769L36.0837 4.77264L33.1553 3.79657L34.7844 8.6769Z" fill="#0099D7"/>
<path d="M34.7844 8.6769L33.1553 3.79657L36.0837 4.77264L34.7844 8.6769Z" fill="#0090CE"/>
<path d="M34.5755 0.0538635H31.9097L32.1722 0.85491L34.5755 0.0538635Z" fill="#0099D7"/>
<path d="M32.1724 0.854906L31.9502 0.195221C32.3272 0.289462 32.684 0.41736 33.0273 0.565452L32.1656 0.854906H32.1724Z" fill="#00A8DF"/>
<path d="M36.8982 5.04187V2.33582L36.0903 4.77261L36.8982 5.04187Z" fill="#0099D7"/>
<path d="M36.7164 4.98131L36.0903 4.77263L36.3663 3.93793C36.5077 4.2745 36.6289 4.61781 36.7164 4.98131Z" fill="#00A8DF"/>
<path d="M33.1552 3.78984L36.0904 4.77263L36.8982 2.33584V0.0538635H34.5757L32.1724 0.85491L33.1552 3.78984Z" fill="#0099D7"/>
<path d="M36.0904 4.77261L33.1552 3.79654L32.1724 0.854883L33.0341 0.56543C34.5218 1.23185 35.7134 2.44351 36.3664 3.9379L36.0904 4.77261Z" fill="#0093CF"/>
<path d="M4.75293 36.1212L5.02894 36.9491H15.0664L8.67769 34.8152L4.75293 36.1212Z" fill="#0099D7"/>
<path d="M14.9115 36.8953H6.50999C5.97142 36.8953 5.44633 36.8279 4.94816 36.7068L4.75293 36.1279L8.67769 34.822L14.9115 36.902V36.8953Z" fill="#00A6DD"/>
<path d="M4.75289 36.1211L8.67766 34.8152L3.77002 33.1795L4.75289 36.1211Z" fill="#0099D7"/>
<path d="M4.75289 36.1211L3.77002 33.1795L8.67766 34.8152L4.75289 36.1211Z" fill="#0090CE"/>
<path d="M2.11385 28.2722L0 21.9244V31.9207L0.807841 32.1899L2.11385 28.2722Z" fill="#0099D7"/>
<path d="M0.807841 32.1899L0.195228 31.988C0.0673201 31.4697 0 30.9379 0 30.3859V21.9244L2.11385 28.2722L0.807841 32.1899Z" fill="#00A6DD"/>
<path d="M2.11363 28.2722L0.807617 32.1899L3.74951 33.166L2.11363 28.2722Z" fill="#0099D7"/>
<path d="M3.74951 33.166L0.807617 32.1899L2.11363 28.2722L3.74951 33.166Z" fill="#0090CE"/>
<path d="M2.28223 36.9491H5.02216L4.74614 36.1279L2.28223 36.9491Z" fill="#0099D7"/>
<path d="M4.9413 36.7C4.61143 36.6193 4.29502 36.5116 3.98535 36.3769L4.7528 36.1211L4.9413 36.7Z" fill="#00A8DF"/>
<path d="M0 31.9207V34.62L0.807842 32.1899L0 31.9207Z" fill="#0099D7"/>
<path d="M0.545481 32.9843C0.404109 32.6679 0.289665 32.3313 0.202148 31.988L0.80803 32.19L0.545481 32.9843Z" fill="#00A8DF"/>
<path d="M3.76319 33.1795L3.74973 33.1727L0.807841 32.1899L0 34.62V36.9491H2.28215L4.74607 36.1279L3.76319 33.1795Z" fill="#0099D7"/>
<path d="M3.98547 36.3837C2.45057 35.7307 1.21861 34.5123 0.54541 32.9843L0.807959 32.1899L3.74985 33.1727H3.76331L4.74619 36.1211L3.97874 36.3769L3.98547 36.3837Z" fill="#0093CF"/>
<path d="M4.72587 20.4435L0 18.8683V21.8841L2.12058 28.252L4.72587 20.4435Z" fill="#0099D7"/>
<path d="M2.12058 28.252L0 21.8841V18.8683L4.72587 20.4435L2.12058 28.252Z" fill="#00ACE0"/>
<path d="M8.67773 34.8152L15.0731 36.9491H18.0689L16.4936 32.2101L8.67773 34.8152Z" fill="#0099D7"/>
<path d="M18.0554 36.8953H14.9183L8.67773 34.8152L16.4936 32.2101L18.0554 36.8953Z" fill="#00ACE0"/>
<path d="M4.72589 20.4435L2.12061 28.252L3.76322 33.1727L3.74975 33.166V33.1727L3.76322 33.1795H3.76995L8.67759 34.8152L16.4935 32.2101L13.5516 23.3852L4.72589 20.4435Z" fill="#0099D7"/>
<path d="M8.67759 34.8152L3.76995 33.1795H3.76322L3.74975 33.1727V33.166L3.76322 33.1727L2.12061 28.252L4.72589 20.4435L13.5516 23.3852L16.4935 32.2101L8.67759 34.8152Z" fill="#1E96D1"/>
<path d="M4.72587 20.4368L0 18.8616V18.8683L4.72587 20.4435V20.4368Z" fill="#0099D7"/>
<path d="M4.72587 20.4435L0 18.8683V18.8616L4.72587 20.4368V20.4435Z" fill="#3AB4E4"/>
<path d="M4.72527 20.4351L4.72314 20.4415L13.5427 23.382L13.5448 23.3756L4.72527 20.4351Z" fill="#0099D7"/>
<path d="M4.72527 20.4351L4.72314 20.4415L13.5427 23.382L13.5448 23.3756L4.72527 20.4351Z" fill="#4CA0D6"/>
<path d="M8.67773 34.8152L15.0664 36.9491H15.0731L8.67773 34.8152Z" fill="#0099D7"/>
<path d="M14.9183 36.8953H14.9116L8.67773 34.8152L14.9183 36.8953Z" fill="#4FB8E5"/>
<path d="M8.67766 34.8152L3.77002 33.1795L8.67766 34.8152Z" fill="#58A4D8"/>
<path d="M2.12058 28.252L0 21.8841V21.9245L2.11385 28.2722L2.12058 28.252Z" fill="#0099D7"/>
<path d="M2.11385 28.2722L0 21.9245V21.8841L2.12058 28.252L2.11385 28.2722Z" fill="#00A6DD"/>
<path d="M3.76311 33.1728L2.1205 28.252L2.11377 28.2722L3.74965 33.166L3.76311 33.1728Z" fill="#0099D7"/>
<path d="M3.76311 33.1728L3.74965 33.166L2.11377 28.2722L2.1205 28.252L3.76311 33.1728Z" fill="#0090CE"/>
<path d="M28.2342 28.2722L23.3535 13.6245L8.67773 8.73074L13.5652 23.3919L13.5517 23.3852V23.3919L28.2477 28.2924L28.241 28.279L28.2342 28.2722Z" fill="white"/>
<path d="M8.65761 8.69708H8.65088L13.5518 23.3852L13.5652 23.3919L8.67781 8.73074H8.67107L8.65761 8.69708Z" fill="white"/>
<path d="M8.66406 8.7038L8.67753 8.73072L23.3533 13.6245L23.3398 13.5909L8.66406 8.7038Z" fill="white"/>
<path d="M8.65723 8.69708L8.67069 8.73074H8.67742L8.66396 8.70381L8.65723 8.69708Z" fill="white"/>
<path d="M28.2342 28.2722L28.241 28.2789L23.3602 13.6245H23.3535L28.2342 28.2722Z" fill="white"/>
<path d="M23.3398 13.5909L23.3533 13.6245H23.36L23.3466 13.5976L23.3398 13.5909Z" fill="white"/>
<path d="M23.8783 6.34778C22.2088 6.34778 20.546 6.98727 19.2736 8.25279C18.3109 9.21539 17.7185 10.4001 17.4829 11.6387L23.3398 13.5909L25.218 19.2318C26.4163 18.9828 27.554 18.3904 28.483 17.4615C31.0277 14.917 31.0277 10.7973 28.483 8.25279C27.2107 6.98054 25.5479 6.34778 23.8783 6.34778ZM25.8373 12.6956C25.3796 12.6956 24.9218 12.5205 24.5717 12.1705C23.8716 11.4704 23.8716 10.3328 24.5717 9.63274C24.9218 9.2827 25.3796 9.10769 25.8373 9.10769C26.2951 9.10769 26.7529 9.2827 27.103 9.63274C27.8031 10.3328 27.8031 11.4704 27.103 12.1705C26.7529 12.5205 26.2951 12.6956 25.8373 12.6956Z" fill="white"/>
<path d="M23.34 13.5909L17.4832 11.6387C17.2273 13.012 17.4091 14.4525 18.0419 15.7315L14.7769 18.9962L8.51611 25.2565V28.353L13.1545 27.4779V25.0815H14.4941L14.6557 23.3313L17.1331 23.5265L17.3822 21.9648L17.5707 20.7935L18.7218 21.9446L21.6839 18.9828C22.3908 19.2386 23.138 19.3665 23.8853 19.3665C24.3363 19.3665 24.7807 19.3194 25.225 19.2251L23.3467 13.5909H23.34Z" fill="#5ABFE4"/>
</g>
<mask id="mask1_412_492" style="mask-type:luminance" maskUnits="userSpaceOnUse" x="-24" y="0" width="190" height="56">
<path d="M165.726 0H-24V56H165.726V0Z" fill="white"/>
</mask>
<g mask="url(#mask1_412_492)">
<path d="M62.4634 22.1813C62.4634 25.2873 60.0009 27.0855 55.27 27.0855H45.9717V9.10342H54.7591C59.255 9.10342 61.5642 10.9732 61.5642 13.7726C61.5642 15.5709 60.6446 16.9604 59.1732 17.7267C61.1759 18.3703 62.4634 19.9131 62.4634 22.1711M50.1099 12.2401V16.4802H54.2482C56.2816 16.4802 57.3851 15.765 57.3851 14.3448C57.3851 12.9246 56.2816 12.2401 54.2482 12.2401H50.1099ZM58.274 21.742C58.274 20.2299 57.1194 19.5044 54.9634 19.5044H50.1099V23.9489H54.9634C57.1194 23.9489 58.274 23.2848 58.274 21.742Z" fill="#17A3D8"/>
<path d="M77.6169 19.198V27.0856H73.8669V25.3691C73.121 26.6258 71.6803 27.3001 69.6571 27.3001C66.418 27.3001 64.4971 25.5019 64.4971 23.1111C64.4971 20.7203 66.2137 18.9732 70.4337 18.9732H73.6217C73.6217 17.2567 72.5897 16.2452 70.4337 16.2452C68.9725 16.2452 67.45 16.7356 66.4487 17.5326L65.008 14.7331C66.5202 13.6501 68.7579 13.0677 70.965 13.0677C75.1748 13.0677 77.6169 15.0192 77.6169 19.2082M73.6115 22.7126V21.3027H70.8628C68.9929 21.3027 68.4003 21.9974 68.4003 22.917C68.4003 23.9183 69.2484 24.5824 70.6585 24.5824C71.997 24.5824 73.1516 23.9693 73.6115 22.7024" fill="#17A3D8"/>
<path d="M94.7426 13.2618L88.4994 27.9234C87.1609 31.2644 85.2604 32.2656 82.7672 32.2656C81.3571 32.2656 79.8142 31.8059 78.915 31.0089L80.3762 28.1584C80.9893 28.6999 81.8374 29.037 82.6344 29.037C83.7379 29.037 84.351 28.5466 84.8925 27.3206L84.9436 27.1877L78.9559 13.272H83.0942L86.9668 22.6411L90.87 13.272H94.7222L94.7426 13.2618Z" fill="#17A3D8"/>
<path d="M109.517 21.3027H99.0639C99.4522 23.0192 100.913 24.0715 103.018 24.0715C104.479 24.0715 105.532 23.6322 106.482 22.7331L108.618 25.0421C107.33 26.5032 105.409 27.2797 102.916 27.2797C98.1341 27.2797 95.0278 24.2759 95.0278 20.1686C95.0278 16.0613 98.1852 13.0575 102.395 13.0575C106.605 13.0575 109.588 15.7752 109.588 20.2197C109.588 20.5262 109.537 20.9655 109.517 21.3027ZM99.0128 18.963H105.818C105.532 17.2158 104.224 16.0817 102.426 16.0817C100.627 16.0817 99.2887 17.1852 99.0128 18.963Z" fill="#17A3D8"/>
<path d="M120.89 13.0575V16.7561C120.553 16.7254 120.297 16.705 119.991 16.705C117.783 16.705 116.322 17.9106 116.322 20.5568V27.0753H112.317V13.2618H116.138V15.0805C117.119 13.742 118.754 13.0575 120.89 13.0575Z" fill="#17A3D8"/>
<path d="M137.463 19.1673V27.0754H133.458V19.7803C133.458 17.5428 132.426 16.5211 130.658 16.5211C128.737 16.5211 127.347 17.7063 127.347 20.2503V27.0856H123.342V13.272H127.174V14.8863C128.257 13.7011 129.871 13.0677 131.741 13.0677C135 13.0677 137.473 14.9681 137.473 19.1775" fill="#17A3D8"/>
<path d="M143.727 9.10342H142.419V27.0855H143.727V9.10342Z" fill="#17A3D8"/>
<path d="M149.061 9.10342H156.173C161.874 9.10342 165.726 12.8531 165.726 18.0945C165.726 23.3359 161.874 27.0855 156.173 27.0855H149.061V9.10342ZM156.071 25.9004C161.159 25.9004 164.419 22.6615 164.419 18.0945C164.419 13.5274 161.159 10.2886 156.071 10.2886H150.369V25.9004H156.071Z" fill="#17A3D8"/>
</g>
</g>
<defs>
<clipPath id="clip0_412_492">
<rect width="166" height="37" fill="white"/>
</clipPath>
</defs>
</svg>
