<svg width="566" height="350" viewBox="0 0 566 350" fill="none" xmlns="http://www.w3.org/2000/svg">
<mask id="mask0_1041_5326" style="mask-type:alpha" maskUnits="userSpaceOnUse" x="0" y="3" width="561" height="340">
<rect y="3" width="561" height="340" rx="6" fill="#142638"/>
</mask>
<g mask="url(#mask0_1041_5326)">
<circle cx="382" cy="168" r="278" fill="url(#paint0_radial_1041_5326)"/>
<path d="M542.985 92.2484C551.671 87.2492 562.372 87.2492 571.058 92.2484L615.92 118.07C624.606 123.069 629.956 132.308 629.956 142.306V193.948C629.956 203.946 624.606 213.185 615.92 218.185L571.058 244.006C562.372 249.005 551.671 249.005 542.985 244.006L498.123 218.185C489.438 213.185 484.087 203.946 484.087 193.948V142.306C484.087 132.308 489.438 123.069 498.123 118.07L542.985 92.2484Z" fill="white" fill-opacity="0.26"/>
<path d="M367.942 90.7868C376.628 85.7876 387.329 85.7876 396.015 90.7868L440.877 116.608C449.563 121.607 454.913 130.846 454.913 140.844V192.486C454.913 202.485 449.563 211.724 440.877 216.723L396.015 242.544C387.329 247.543 376.628 247.543 367.942 242.544L323.08 216.723C314.394 211.724 309.043 202.485 309.043 192.486V140.844C309.043 130.846 314.394 121.607 323.08 116.608L367.942 90.7868Z" fill="white" fill-opacity="0.08"/>
<path d="M280.42 253.032C289.106 248.032 299.807 248.032 308.493 253.032L353.355 278.853C362.041 283.852 367.391 293.091 367.391 303.089V354.731C367.391 364.73 362.041 373.969 353.355 378.968L308.493 404.789C299.807 409.788 289.106 409.788 280.42 404.789L235.558 378.968C226.872 373.969 221.522 364.73 221.522 354.731V303.089C221.522 293.091 226.872 283.852 235.558 278.853L280.42 253.032Z" fill="white" fill-opacity="0.26"/>
<path d="M199.917 128.377C204.259 125.877 209.61 125.877 213.953 128.377L236.384 141.288C240.727 143.787 243.402 148.407 243.402 153.406V179.227C243.402 184.226 240.727 188.846 236.384 191.345L213.953 204.256C209.61 206.755 204.259 206.755 199.917 204.256L177.486 191.345C173.143 188.846 170.467 184.226 170.467 179.227V153.406C170.467 148.407 173.143 143.787 177.486 141.288L199.917 128.377Z" fill="white" fill-opacity="0.26"/>
<path d="M280.42 -68.5348C289.106 -73.534 299.807 -73.534 308.493 -68.5348L353.355 -42.7136C362.041 -37.7144 367.391 -28.4756 367.391 -18.4772V33.1648C367.391 43.1632 362.041 52.4021 353.355 57.4013L308.493 83.2225C299.807 88.2217 289.106 88.2217 280.42 83.2225L235.558 57.4013C226.872 52.4021 221.522 43.1632 221.522 33.1648V-18.4772C221.522 -28.4756 226.872 -37.7144 235.558 -42.7136L280.42 -68.5348Z" fill="white" fill-opacity="0.26"/>
<path d="M455.464 254.493C464.149 249.494 474.851 249.494 483.536 254.493L528.398 280.314C537.084 285.314 542.435 294.552 542.435 304.551V356.193C542.435 366.191 537.084 375.43 528.398 380.429L483.536 406.251C474.851 411.25 464.149 411.25 455.464 406.251L410.602 380.429C401.916 375.43 396.565 366.191 396.565 356.193V304.551C396.565 294.552 401.916 285.314 410.602 280.314L455.464 254.493Z" fill="white" fill-opacity="0.15"/>
<path d="M192.899 90.7868C201.584 85.7876 212.285 85.7876 220.971 90.7868L265.833 116.608C274.519 121.607 279.87 130.846 279.87 140.844V192.486C279.87 202.485 274.519 211.724 265.833 216.723L220.971 242.544C212.285 247.543 201.584 247.543 192.899 242.544L148.036 216.723C139.351 211.724 134 202.485 134 192.486V140.844C134 130.846 139.351 121.607 148.036 116.608L192.899 90.7868Z" fill="white" fill-opacity="0.15"/>
<path d="M455.464 -67.0731C464.149 -72.0723 474.851 -72.0723 483.536 -67.0731L528.398 -41.252C537.084 -36.2528 542.435 -27.0139 542.435 -17.0155V34.6265C542.435 44.6249 537.084 53.8638 528.398 58.863L483.536 84.6842C474.851 89.6834 464.149 89.6834 455.464 84.6842L410.602 58.863C401.916 53.8638 396.565 44.6249 396.565 34.6265V-17.0155C396.565 -27.0139 401.916 -36.2528 410.602 -41.252L455.464 -67.0731Z" fill="white" fill-opacity="0.15"/>
<path d="M501.591 6.18243C501.591 -4.86326 492.637 -13.8176 481.591 -13.8176H396.565V30.0324H481.591C492.637 30.0324 501.591 21.0781 501.591 10.0324V6.18243Z" fill="white" fill-opacity="0.08"/>
<path d="M437.409 327.749C437.409 316.703 446.363 307.749 457.409 307.749H542.435V351.599H457.409C446.363 351.599 437.409 342.645 437.409 331.599V327.749Z" fill="white" fill-opacity="0.26"/>
<g filter="url(#filter0_d_1041_5326)">
<path d="M368.355 90.814C377.108 85.7287 387.892 85.7287 396.645 90.814L441.855 117.08C450.608 122.165 456 131.563 456 141.734V194.266C456 204.437 450.608 213.835 441.855 218.92L396.645 245.186C387.892 250.271 377.108 250.271 368.355 245.186L323.145 218.92C314.392 213.835 309 204.437 309 194.266V141.734C309 131.563 314.392 122.165 323.145 117.08L368.355 90.814Z" fill="white"/>
</g>
<path d="M334.997 166.027C334.997 139.243 353.066 120.242 376.297 120.242C392.795 120.242 407.7 130.8 414.163 144.794L404.789 153.761C400.306 140.699 389.612 131.596 376.821 131.596C358.481 131.596 347.263 148.481 347.263 166.046C347.263 191.374 366.399 209.074 392.387 209.074C402.149 209.074 410.456 206.706 417.055 203.135C406.109 212.762 395.55 215.401 384.585 215.401C359.276 215.382 334.997 198.225 334.997 166.027ZM428.816 189.123C423.013 197.177 411.135 205.484 392.387 205.484C368.495 205.484 350.814 189.511 350.814 166.027C350.814 149.394 361.101 135.148 376.802 135.148C380.49 135.148 384.197 136.08 387.36 137.652C374.958 138.836 363.081 147.55 363.081 166.279C363.081 185.008 377.598 194.906 392.368 194.906C404.634 194.906 411.892 190.287 416.512 185.396V165.347H428.777V189.103L428.816 189.123ZM429.476 143.455H417.327C412.048 132.237 402.945 124.182 392.775 119.971C408.088 120.495 422.198 129.345 429.457 143.455H429.476ZM402.285 177.109L412.979 167.599V183.824C410.475 186.328 407.04 188.715 402.285 190.151V177.089V177.109ZM418.511 155.08H408.224L417.191 147.026H427.477L418.511 155.08Z" fill="#142638"/>
</g>
<defs>
<filter id="filter0_d_1041_5326" x="269" y="57" width="227" height="242" filterUnits="userSpaceOnUse" color-interpolation-filters="sRGB">
<feFlood flood-opacity="0" result="BackgroundImageFix"/>
<feColorMatrix in="SourceAlpha" type="matrix" values="0 0 0 0 0 0 0 0 0 0 0 0 0 0 0 0 0 0 127 0" result="hardAlpha"/>
<feOffset dy="10"/>
<feGaussianBlur stdDeviation="20"/>
<feComposite in2="hardAlpha" operator="out"/>
<feColorMatrix type="matrix" values="0 0 0 0 0 0 0 0 0 0 0 0 0 0 0 0 0 0 0.5 0"/>
<feBlend mode="normal" in2="BackgroundImageFix" result="effect1_dropShadow_1041_5326"/>
<feBlend mode="normal" in="SourceGraphic" in2="effect1_dropShadow_1041_5326" result="shape"/>
</filter>
<radialGradient id="paint0_radial_1041_5326" cx="0" cy="0" r="1" gradientUnits="userSpaceOnUse" gradientTransform="translate(382 168) rotate(90) scale(278)">
<stop stop-color="white" stop-opacity="0.2"/>
<stop offset="1" stop-color="white" stop-opacity="0"/>
</radialGradient>
</defs>
</svg>
