<svg viewBox="0 0 561 340" fill="none" xmlns="http://www.w3.org/2000/svg">
    <g clip-path="url(#clip0_2489_25866)">
        <mask id="mask0_2489_25866" style="mask-type:alpha" maskUnits="userSpaceOnUse" x="0" y="0" width="561" height="340">
            <rect width="561" height="340" rx="6" fill="#142638"/>
        </mask>
        <g mask="url(#mask0_2489_25866)">
            <circle cx="382" cy="165" r="278" fill="url(#paint0_radial_2489_25866)"/>
            <path d="M542.985 89.2484C551.671 84.2492 562.372 84.2492 571.058 89.2484L615.92 115.07C624.606 120.069 629.956 129.308 629.956 139.306V190.948C629.956 200.946 624.606 210.185 615.92 215.185L571.058 241.006C562.372 246.005 551.671 246.005 542.985 241.006L498.123 215.185C489.438 210.185 484.087 200.946 484.087 190.948V139.306C484.087 129.308 489.438 120.069 498.123 115.07L542.985 89.2484Z" fill="white" fill-opacity="0.26"/>
            <path d="M367.942 87.7867C376.628 82.7876 387.329 82.7876 396.015 87.7867L440.877 113.608C449.563 118.607 454.913 127.846 454.913 137.844V189.486C454.913 199.485 449.563 208.724 440.877 213.723L396.015 239.544C387.329 244.543 376.628 244.543 367.942 239.544L323.08 213.723C314.394 208.724 309.043 199.485 309.043 189.486V137.844C309.043 127.846 314.394 118.607 323.08 113.608L367.942 87.7867Z" fill="white" fill-opacity="0.08"/>
            <path d="M280.42 250.032C289.106 245.032 299.807 245.032 308.493 250.032L353.355 275.853C362.041 280.852 367.391 290.091 367.391 300.089V351.731C367.391 361.73 362.041 370.969 353.355 375.968L308.493 401.789C299.807 406.788 289.106 406.788 280.42 401.789L235.558 375.968C226.872 370.969 221.522 361.73 221.522 351.731V300.089C221.522 290.091 226.872 280.852 235.558 275.853L280.42 250.032Z" fill="white" fill-opacity="0.26"/>
            <path d="M199.917 125.377C204.259 122.877 209.61 122.877 213.953 125.377L236.384 138.288C240.727 140.787 243.402 145.407 243.402 150.406V176.227C243.402 181.226 240.727 185.845 236.384 188.345L213.953 201.256C209.61 203.755 204.259 203.755 199.917 201.256L177.486 188.345C173.143 185.845 170.467 181.226 170.467 176.227V150.406C170.467 145.407 173.143 140.787 177.486 138.288L199.917 125.377Z" fill="white" fill-opacity="0.26"/>
            <path d="M280.42 -71.5348C289.106 -76.534 299.807 -76.534 308.493 -71.5348L353.355 -45.7136C362.041 -40.7144 367.391 -31.4756 367.391 -21.4772V30.1648C367.391 40.1632 362.041 49.4021 353.355 54.4013L308.493 80.2225C299.807 85.2217 289.106 85.2217 280.42 80.2225L235.558 54.4013C226.872 49.4021 221.522 40.1632 221.522 30.1648V-21.4772C221.522 -31.4756 226.872 -40.7144 235.558 -45.7136L280.42 -71.5348Z" fill="white" fill-opacity="0.26"/>
            <path d="M455.464 251.493C464.149 246.494 474.851 246.494 483.536 251.493L528.398 277.314C537.084 282.314 542.435 291.552 542.435 301.551V353.193C542.435 363.191 537.084 372.43 528.398 377.429L483.536 403.251C474.851 408.25 464.149 408.25 455.464 403.251L410.602 377.429C401.916 372.43 396.565 363.191 396.565 353.193V301.551C396.565 291.552 401.916 282.314 410.602 277.314L455.464 251.493Z" fill="white" fill-opacity="0.15"/>
            <path d="M192.899 87.7867C201.584 82.7876 212.285 82.7876 220.971 87.7867L265.833 113.608C274.519 118.607 279.87 127.846 279.87 137.844V189.486C279.87 199.485 274.519 208.724 265.833 213.723L220.971 239.544C212.285 244.543 201.584 244.543 192.899 239.544L148.036 213.723C139.351 208.724 134 199.485 134 189.486V137.844C134 127.846 139.351 118.607 148.036 113.608L192.899 87.7867Z" fill="white" fill-opacity="0.15"/>
            <path d="M455.464 -70.0731C464.149 -75.0723 474.851 -75.0723 483.536 -70.0731L528.398 -44.252C537.084 -39.2528 542.435 -30.0139 542.435 -20.0155V31.6265C542.435 41.6249 537.084 50.8638 528.398 55.863L483.536 81.6842C474.851 86.6834 464.149 86.6834 455.464 81.6842L410.602 55.863C401.916 50.8638 396.565 41.6249 396.565 31.6265V-20.0155C396.565 -30.0139 401.916 -39.2528 410.602 -44.252L455.464 -70.0731Z" fill="white" fill-opacity="0.15"/>
            <path d="M501.591 3.18249C501.591 -7.8632 492.637 -16.8175 481.591 -16.8175H396.565V27.0325H481.591C492.637 27.0325 501.591 18.0782 501.591 7.03246V3.18249Z" fill="white" fill-opacity="0.08"/>
            <path d="M437.409 324.749C437.409 313.703 446.363 304.749 457.409 304.749H542.435V348.599H457.409C446.363 348.599 437.409 339.645 437.409 328.599V324.749Z" fill="white" fill-opacity="0.26"/>
            <g filter="url(#filter0_d_2489_25866)">
                <path d="M368.355 87.814C377.108 82.7287 387.892 82.7287 396.645 87.814L441.855 114.08C450.608 119.165 456 128.563 456 138.734V191.266C456 201.437 450.608 210.835 441.855 215.92L396.645 242.186C387.892 247.271 377.108 247.271 368.355 242.186L323.145 215.92C314.392 210.835 309 201.437 309 191.266V138.734C309 128.563 314.392 119.165 323.145 114.08L368.355 87.814Z" fill="white"/>
            </g>
            <path d="M334.997 163.027C334.997 136.243 353.066 117.242 376.297 117.242C392.795 117.242 407.7 127.8 414.163 141.794L404.789 150.761C400.306 137.699 389.612 128.596 376.821 128.596C358.481 128.596 347.263 145.481 347.263 163.046C347.263 188.374 366.399 206.074 392.387 206.074C402.149 206.074 410.456 203.706 417.055 200.135C406.109 209.762 395.55 212.401 384.585 212.401C359.276 212.382 334.997 195.225 334.997 163.027ZM428.816 186.123C423.013 194.177 411.135 202.484 392.387 202.484C368.495 202.484 350.814 186.511 350.814 163.027C350.814 146.394 361.101 132.148 376.802 132.148C380.49 132.148 384.197 133.08 387.36 134.652C374.958 135.836 363.081 144.55 363.081 163.279C363.081 182.008 377.598 191.906 392.368 191.906C404.634 191.906 411.892 187.287 416.512 182.396V162.347H428.777V186.103L428.816 186.123ZM429.476 140.455H417.327C412.048 129.237 402.945 121.182 392.775 116.971C408.088 117.495 422.198 126.345 429.457 140.455H429.476ZM402.285 174.109L412.979 164.599V180.824C410.475 183.328 407.04 185.715 402.285 187.151V174.089V174.109ZM418.511 152.08H408.224L417.191 144.026H427.477L418.511 152.08Z" fill="#142638"/>
        </g>
    </g>
    <defs>
        <filter id="filter0_d_2489_25866" x="269" y="54" width="227" height="242" filterUnits="userSpaceOnUse" color-interpolation-filters="sRGB">
            <feFlood flood-opacity="0" result="BackgroundImageFix"/>
            <feColorMatrix in="SourceAlpha" type="matrix" values="0 0 0 0 0 0 0 0 0 0 0 0 0 0 0 0 0 0 127 0" result="hardAlpha"/>
            <feOffset dy="10"/>
            <feGaussianBlur stdDeviation="20"/>
            <feComposite in2="hardAlpha" operator="out"/>
            <feColorMatrix type="matrix" values="0 0 0 0 0 0 0 0 0 0 0 0 0 0 0 0 0 0 0.5 0"/>
            <feBlend mode="normal" in2="BackgroundImageFix" result="effect1_dropShadow_2489_25866"/>
            <feBlend mode="normal" in="SourceGraphic" in2="effect1_dropShadow_2489_25866" result="shape"/>
        </filter>
        <radialGradient id="paint0_radial_2489_25866" cx="0" cy="0" r="1" gradientUnits="userSpaceOnUse" gradientTransform="translate(382 165) rotate(90) scale(278)">
            <stop stop-color="white" stop-opacity="0.2"/>
            <stop offset="1" stop-color="white" stop-opacity="0"/>
        </radialGradient>
        <clipPath id="clip0_2489_25866">
            <rect width="561" height="340" fill="white"/>
        </clipPath>
    </defs>
</svg>
