<svg fill="none" height="233" viewBox="0 0 250 233" width="250" xmlns="http://www.w3.org/2000/svg" xmlns:xlink="http://www.w3.org/1999/xlink"><filter id="a" color-interpolation-filters="sRGB" filterUnits="userSpaceOnUse" height="126.026" width="118.334" x="69.9405" y="0"><feFlood flood-opacity="0" result="BackgroundImageFix"/><feColorMatrix in="SourceAlpha" result="hardAlpha" type="matrix" values="0 0 0 0 0 0 0 0 0 0 0 0 0 0 0 0 0 0 127 0"/><feOffset dy=".9375"/><feGaussianBlur stdDeviation="9.375"/><feComposite in2="hardAlpha" operator="out"/><feColorMatrix type="matrix" values="0 0 0 0 0 0 0 0 0 0 0 0 0 0 0 0 0 0 0.1 0"/><feBlend in2="BackgroundImageFix" mode="normal" result="effect1_dropShadow_2549_18295"/><feBlend in="SourceGraphic" in2="effect1_dropShadow_2549_18295" mode="normal" result="shape"/></filter><filter id="b" color-interpolation-filters="sRGB" filterUnits="userSpaceOnUse" height="65.9282" width="65.4114" x="96.1534" y="30.5229"><feFlood flood-opacity="0" result="BackgroundImageFix"/><feColorMatrix in="SourceAlpha" result="hardAlpha" type="matrix" values="0 0 0 0 0 0 0 0 0 0 0 0 0 0 0 0 0 0 127 0"/><feOffset dy="1.40625"/><feGaussianBlur stdDeviation="3.51562"/><feComposite in2="hardAlpha" operator="out"/><feColorMatrix type="matrix" values="0 0 0 0 0 0 0 0 0 0 0 0 0 0 0 0 0 0 0.1 0"/><feBlend in2="BackgroundImageFix" mode="normal" result="effect1_dropShadow_2549_18295"/><feBlend in="SourceGraphic" in2="effect1_dropShadow_2549_18295" mode="normal" result="shape"/></filter><filter id="c" color-interpolation-filters="sRGB" filterUnits="userSpaceOnUse" height="53.9849" width="184.107" x="31.9806" y="116.155"><feFlood flood-opacity="0" result="BackgroundImageFix"/><feColorMatrix in="SourceAlpha" result="hardAlpha" type="matrix" values="0 0 0 0 0 0 0 0 0 0 0 0 0 0 0 0 0 0 127 0"/><feOffset dy="1.875"/><feGaussianBlur stdDeviation="4.6875"/><feComposite in2="hardAlpha" operator="out"/><feColorMatrix type="matrix" values="0 0 0 0 0 0 0 0 0 0 0 0 0 0 0 0 0 0 0.1 0"/><feBlend in2="BackgroundImageFix" mode="normal" result="effect1_dropShadow_2549_18295"/><feBlend in="SourceGraphic" in2="effect1_dropShadow_2549_18295" mode="normal" result="shape"/></filter><filter id="d" color-interpolation-filters="sRGB" filterUnits="userSpaceOnUse" height="62.9624" width="208.703" x="24.2082" y="169.264"><feFlood flood-opacity="0" result="BackgroundImageFix"/><feColorMatrix in="SourceAlpha" result="hardAlpha" type="matrix" values="0 0 0 0 0 0 0 0 0 0 0 0 0 0 0 0 0 0 127 0"/><feOffset dy="1.875"/><feGaussianBlur stdDeviation="4.6875"/><feComposite in2="hardAlpha" operator="out"/><feColorMatrix type="matrix" values="0 0 0 0 0 0 0 0 0 0 0 0 0 0 0 0 0 0 0.1 0"/><feBlend in2="BackgroundImageFix" mode="normal" result="effect1_dropShadow_2549_18295"/><feBlend in="SourceGraphic" in2="effect1_dropShadow_2549_18295" mode="normal" result="shape"/></filter><linearGradient id="e" gradientUnits="userSpaceOnUse" x1="144.012" x2="117.629" y1="45.0675" y2="89.2462"><stop offset="0" stop-color="#fb5"/><stop offset=".484375" stop-color="#c44e4f"/><stop offset="1" stop-color="#143c5d"/></linearGradient><g filter="url(#a)"><path d="m121.329 19.8967c4.814-2.7789 10.744-2.7789 15.557 0l24.86 14.3533c4.814 2.7789 7.779 7.9145 7.779 13.4724v28.7064c0 5.5578-2.965 10.6935-7.779 13.4724l-24.86 14.3538c-4.813 2.778-10.743 2.778-15.557 0l-24.8603-14.3538c-4.8132-2.7789-7.7782-7.9146-7.7782-13.4724v-28.7064c0-5.5579 2.965-10.6935 7.7782-13.4724z" fill="#fff"/></g><g filter="url(#b)"><path d="m103.185 61.179c0-14.5566 9.82-24.8834 22.446-24.8834 8.966 0 17.067 5.7382 20.58 13.3435l-5.095 4.8734c-2.437-7.099-8.249-12.0461-15.2-12.0461-9.968 0-16.065 9.1769-16.065 18.7231 0 13.7655 10.401 23.3855 24.525 23.3855 5.306 0 9.82-1.2869 13.407-3.2278-5.95 5.2319-11.688 6.6666-17.648 6.6666-13.754-.0106-26.95-9.3352-26.95-26.8348zm50.99 12.5524c-3.154 4.3775-9.61 8.8922-19.799 8.8922-12.985 0-22.595-8.6813-22.595-21.4446 0-9.0399 5.591-16.7823 14.125-16.7823 2.004 0 4.018.5063 5.738 1.3607-6.741.6435-13.196 5.3796-13.196 15.5587s7.89 15.5586 15.917 15.5586c6.667 0 10.612-2.5104 13.122-5.1686v-10.8963h6.667v12.911zm.358-24.82h-6.603c-2.869-6.0969-7.816-10.4745-13.343-12.7635 8.322.2848 15.991 5.0948 19.936 12.7635zm-14.778 18.2906 5.813-5.1686v8.8184c-1.361 1.3606-3.228 2.6581-5.813 3.4387v-7.099zm8.819-11.9723h-5.591l4.873-4.3775h5.591z" fill="url(#e)"/></g><g filter="url(#c)"><path d="m41.3556 141.321c0-9.787 7.83-17.666 17.5685-17.666 4.4044 0 8.613 1.713 11.9408 4.551.3915.391.4404.979.0489 1.37l-3.0341 3.181c-.3915.392-.8319.392-1.2724 0-2.1043-1.859-4.698-2.838-7.3895-2.838-6.1172 0-10.962 5.236-10.962 11.353 0 6.069 4.8448 11.207 11.0109 11.207 2.7405 0 4.8448-.832 5.8236-1.223v-4.16h-3.915c-.5383 0-.9298-.392-.9298-.881v-3.866c0-.538.3915-.93.9298-.93h9.396c.4893 0 .8808.441.8808.93v12.528c0 .391-.1957.636-.3915.783 0 0-5.0405 3.181-12.1365 3.181-9.7385 0-17.5685-7.732-17.5685-17.52zm35.7951 0c0-9.787 7.781-17.666 17.5685-17.666 9.7878 0 17.6178 7.879 17.6178 17.666 0 9.788-7.83 17.569-17.6178 17.569-9.7875 0-17.5685-7.781-17.5685-17.569zm6.3619 0c0 6.166 5.0405 11.207 11.2066 11.207 6.1658 0 11.2558-5.041 11.2558-11.207s-5.09-11.304-11.2558-11.304c-6.1661 0-11.2066 5.138-11.2066 11.304zm45.1424 17.03-15.122-32.934c-.293-.637.098-1.273.832-1.273h4.992c.44 0 .734.294.832.538l9.396 21.044h.342l9.396-21.044c.098-.244.392-.538.832-.538h4.992c.734 0 1.126.636.832 1.273l-15.171 32.934c-.146.294-.391.539-.832.539h-.489c-.44 0-.685-.245-.832-.539zm22.737-.88v-32.397c0-.489.392-.93.93-.93h19.918c.538 0 .93.441.93.93v4.013c0 .489-.392.93-.93.93h-14.486v8.025h12.088c.489 0 .93.441.93.93v4.062c0 .538-.441.93-.93.93h-12.088v8.564h14.486c.538 0 .93.44.93.93v4.013c0 .489-.392.929-.93.929h-19.918c-.538 0-.93-.44-.93-.929zm29.726 0v-32.397c0-.489.392-.93.93-.93h13.996c5.872 0 10.668 4.698 10.668 10.522 0 4.502-2.985 8.172-7.242 9.885l6.704 12.43c.343.636 0 1.419-.832 1.419h-5.138c-.441 0-.685-.244-.783-.44l-6.509-12.968h-5.432v12.479c0 .489-.441.929-.93.929h-4.502c-.538 0-.93-.44-.93-.929zm6.411-17.716h7.977c2.593 0 4.844-2.251 4.844-4.991 0-2.594-2.251-4.747-4.844-4.747h-7.977z" fill="#fff"/></g><g filter="url(#d)"><path d="m33.5832 193.283v-15.826c0-.239.1912-.454.4542-.454h9.5625c.263 0 .4542.215.4542.454v1.339c0 .239-.1912.454-.4542.454h-7.5544v4.877h6.383c.2391 0 .4542.215.4542.454v1.339c0 .263-.2151.454-.4542.454h-6.383v5.14h7.5544c.263 0 .4542.215.4542.454v1.315c0 .239-.1912.455-.4542.455h-9.5625c-.263 0-.4542-.216-.4542-.455zm13.4883-4.47c-.2629 0-.4542-.191-.4542-.43v-1.028c0-.263.1913-.455.4542-.455h5.1638c.263 0 .4542.192.4542.455v1.028c0 .239-.1912.43-.4542.43zm8.3349-3.419c0-4.781 3.8489-8.63 8.6063-8.63 2.295 0 4.1836.837 5.8092 2.223.1912.192.2151.479.0239.67-.3586.382-.7172.741-1.0758 1.123-.1912.216-.3825.192-.6215-.024-1.1236-.98-2.6058-1.625-4.0641-1.625-3.3947 0-6.0005 2.869-6.0005 6.215 0 3.323 2.6058 6.192 6.0005 6.192 1.9842 0 3.3469-.717 3.5859-.813v-2.677h-2.3428c-.263 0-.4542-.191-.4542-.43v-1.387c0-.263.1912-.454.4542-.454h4.351c.239 0 .4303.215.4303.454 0 1.912.0239 3.873.0239 5.785 0 .12-.0957.311-.1913.383 0 0-2.4623 1.578-5.9287 1.578-4.7574 0-8.6063-3.801-8.6063-8.583zm17.7196 0c0-4.781 3.8011-8.63 8.5823-8.63 4.7813 0 8.6063 3.849 8.6063 8.63 0 4.782-3.825 8.583-8.6063 8.583-4.7812 0-8.5823-3.801-8.5823-8.583zm2.3906 0c0 3.419 2.7971 6.192 6.1917 6.192 3.4186 0 6.2157-2.773 6.2157-6.192 0-3.394-2.7971-6.239-6.2157-6.239-3.3946 0-6.1917 2.845-6.1917 6.239zm22.9069 8.32-7.2914-16.089c-.1435-.311.0478-.622.4064-.622h1.6973c.1913 0 .3586.144.4064.263l5.2594 11.834h.1434l5.259-11.834c.048-.119.192-.263.407-.263h1.697c.359 0 .55.311.407.622l-7.3396 16.089c-.0718.143-.2152.263-.4064.263h-.2391c-.1674 0-.3347-.12-.4064-.263zm11.2745-.431v-15.826c0-.239.191-.454.454-.454h9.562c.263 0 .454.215.454.454v1.339c0 .239-.191.454-.454.454h-7.554v4.877h6.383c.239 0 .454.215.454.454v1.339c0 .263-.215.454-.454.454h-6.383v5.14h7.554c.263 0 .454.215.454.454v1.315c0 .239-.191.455-.454.455h-9.562c-.263 0-.454-.216-.454-.455zm14.544 0v-15.826c0-.239.191-.454.454-.454h6.503c2.869 0 5.211 2.271 5.211 5.116 0 2.199-1.458 4.016-3.538 4.853l3.275 6.072c.168.311 0 .694-.406.694h-1.865c-.191 0-.334-.12-.382-.216l-3.18-6.335h-3.61v6.096c0 .239-.215.455-.454.455h-1.554c-.263 0-.454-.216-.454-.455zm2.51-8.152h4.256c1.553 0 2.916-1.315 2.916-2.964 0-1.554-1.363-2.845-2.916-2.845h-4.256zm13.856 8.152v-16.089c0-.239.215-.43.454-.43h.597l10.376 12.001h.024v-11.308c0-.239.191-.454.454-.454h1.53c.239 0 .454.215.454.454v16.089c0 .239-.215.431-.454.431h-.622l-10.375-12.336h-.024v11.642c0 .239-.191.455-.454.455h-1.506c-.239 0-.454-.216-.454-.455zm17.856-.095 2.964-16.065c.048-.192.239-.359.43-.359h.383c.143 0 .358.12.406.263l4.997 12.216h.095l4.973-12.216c.048-.143.239-.263.406-.263h.383c.191 0 .382.167.43.359l2.94 16.065c.072.334-.095.55-.43.55h-1.554c-.215 0-.406-.168-.454-.335l-1.769-10.686c-.024 0-.072 0-.072 0l-4.303 10.997c-.048.143-.191.263-.406.263h-.431c-.191 0-.358-.12-.406-.263l-4.327-10.997c-.024 0-.072 0-.096 0l-1.721 10.686c-.024.167-.239.335-.43.335h-1.554c-.335 0-.502-.216-.454-.55zm22.392.095v-15.826c0-.239.191-.454.454-.454h9.563c.263 0 .454.215.454.454v1.339c0 .239-.191.454-.454.454h-7.555v4.877h6.383c.239 0 .455.215.455.454v1.339c0 .263-.216.454-.455.454h-6.383v5.14h7.555c.263 0 .454.215.454.454v1.315c0 .239-.191.455-.454.455h-9.563c-.263 0-.454-.216-.454-.455zm14.544 0v-16.089c0-.239.216-.43.455-.43h.597l10.376 12.001h.024v-11.308c0-.239.191-.454.454-.454h1.53c.239 0 .454.215.454.454v16.089c0 .239-.215.431-.454.431h-.622l-10.375-12.336h-.024v11.642c0 .239-.191.455-.454.455h-1.506c-.239 0-.455-.216-.455-.455zm21.299 0v-14.033h-3.897c-.263 0-.454-.215-.454-.454v-1.339c0-.239.191-.454.454-.454h10.28c.263 0 .454.215.454.454v1.339c0 .239-.191.454-.454.454h-3.897v14.033c0 .239-.215.455-.454.455h-1.578c-.239 0-.454-.216-.454-.455zm-156.3347 27v-15.826c0-.239.1912-.454.4542-.454h5.4506c2.9405 0 5.355 2.391 5.355 5.283 0 2.965-2.4145 5.379-5.3311 5.379h-3.4664v5.618c0 .239-.2151.455-.4542.455h-1.5539c-.263 0-.4542-.216-.4542-.455zm2.4623-7.96h3.2991c1.6495 0 3.0361-1.339 3.0361-3.06 0-1.626-1.3866-2.869-3.0361-2.869h-3.2991zm12.1989 7.96v-15.826c0-.239.1913-.454.4542-.454h1.5778c.2391 0 .4543.215.4543.454v14.057h6.4786c.2629 0 .4542.215.4542.454v1.315c0 .239-.1913.455-.4542.455h-8.5107c-.2629 0-.4542-.216-.4542-.455zm11.303.455c-.3586 0-.5498-.311-.4064-.622l7.3392-16.089c.0717-.143.2869-.263.4064-.263h.2391c.1195 0 .3347.12.4064.263l7.2918 16.089c.143.311-.048.622-.407.622h-1.5059c-.2869 0-.4542-.144-.5498-.359l-1.4822-3.275h-7.8174c-.4781 1.099-.9801 2.175-1.4582 3.275-.0718.167-.263.359-.5499.359zm4.4466-5.69h5.9765l-2.9404-6.55h-.1196zm15.0979 5.235v-14.033h-3.897c-.263 0-.454-.215-.454-.454v-1.339c0-.239.191-.454.454-.454h10.28c.263 0 .454.215.454.454v1.339c0 .239-.191.454-.454.454h-3.897v14.033c0 .239-.215.455-.454.455h-1.578c-.239 0-.454-.216-.454-.455zm12.583 0v-14.033h-3.897c-.263 0-.454-.215-.454-.454v-1.339c0-.239.191-.454.454-.454h10.28c.263 0 .454.215.454.454v1.339c0 .239-.191.454-.454.454h-3.897v14.033c0 .239-.215.455-.454.455h-1.578c-.239 0-.454-.216-.454-.455zm9.892 0v-15.826c0-.239.191-.454.454-.454h9.562c.263 0 .455.215.455.454v1.339c0 .239-.192.454-.455.454h-7.554v5.523h6.383c.239 0 .454.215.454.454v1.315c0 .239-.215.454-.454.454h-6.383v6.287c0 .239-.215.455-.454.455h-1.554c-.263 0-.454-.216-.454-.455zm12.788-7.889c0-4.781 3.801-8.63 8.582-8.63 4.782 0 8.607 3.849 8.607 8.63 0 4.782-3.825 8.583-8.607 8.583-4.781 0-8.582-3.801-8.582-8.583zm2.391 0c0 3.419 2.797 6.192 6.191 6.192 3.419 0 6.216-2.773 6.216-6.192 0-3.394-2.797-6.239-6.216-6.239-3.394 0-6.191 2.845-6.191 6.239zm18.672 7.889v-15.826c0-.239.192-.454.455-.454h6.502c2.869 0 5.212 2.271 5.212 5.116 0 2.199-1.459 4.016-3.539 4.853l3.276 6.072c.167.311 0 .694-.407.694h-1.864c-.192 0-.335-.12-.383-.216l-3.18-6.335h-3.609v6.096c0 .239-.216.455-.455.455h-1.553c-.263 0-.455-.216-.455-.455zm2.51-8.152h4.256c1.554 0 2.916-1.315 2.916-2.964 0-1.554-1.362-2.845-2.916-2.845h-4.256zm12.708 8.057 2.965-16.065c.047-.192.239-.359.43-.359h.382c.144 0 .359.12.407.263l4.996 12.216h.096l4.972-12.216c.048-.143.239-.263.407-.263h.382c.192 0 .383.167.431.359l2.94 16.065c.072.334-.096.55-.43.55h-1.554c-.215 0-.407-.168-.454-.335l-1.769-10.686c-.024 0-.072 0-.072 0l-4.303 10.997c-.048.143-.191.263-.407.263h-.43c-.191 0-.359-.12-.406-.263l-4.327-10.997c-.024 0-.072 0-.096 0l-1.721 10.686c-.024.167-.239.335-.431.335h-1.553c-.335 0-.503-.216-.455-.55z" fill="#fff"/></g></svg>