<svg width="263" height="208" viewBox="0 0 263 208" fill="none" xmlns="http://www.w3.org/2000/svg">
<g clip-path="url(#clip0_638_3613)">
<rect width="262.5" height="207" transform="translate(0.25 0.5)" fill="#142638"/>
<mask id="mask0_638_3613" style="mask-type:alpha" maskUnits="userSpaceOnUse" x="-545" y="-21" width="811" height="256">
<rect x="-544.25" y="-20.5" width="810" height="255" rx="4.5" fill="#142638"/>
</mask>
<g mask="url(#mask0_638_3613)">
<circle cx="131.5" cy="103.25" r="208.5" fill="url(#paint0_radial_638_3613)"/>
<path d="M252.239 46.4361C258.753 42.6867 266.779 42.6867 273.294 46.4361L306.94 65.8019C313.455 69.5513 317.467 76.4805 317.467 83.9793V122.711C317.467 130.21 313.455 137.139 306.94 140.888L273.294 160.254C266.779 164.003 258.753 164.003 252.239 160.254L218.592 140.888C212.078 137.139 208.065 130.21 208.065 122.711V83.9793C208.065 76.4805 212.078 69.5513 218.592 65.8019L252.239 46.4361Z" fill="white" fill-opacity="0.26"/>
<path d="M120.957 45.3404C127.471 41.591 135.497 41.591 142.011 45.3404L175.658 64.7062C182.172 68.4556 186.185 75.3848 186.185 82.8836V121.615C186.185 129.114 182.172 136.043 175.658 139.792L142.011 159.158C135.497 162.908 127.471 162.908 120.957 159.158L87.31 139.792C80.7957 136.043 76.7827 129.114 76.7827 121.615V82.8836C76.7827 75.3848 80.7957 68.4556 87.31 64.7062L120.957 45.3404Z" fill="white" fill-opacity="0.08"/>
<path d="M55.3152 167.024C61.8295 163.274 69.8555 163.274 76.3697 167.024L110.016 186.39C116.531 190.139 120.544 197.068 120.544 204.567V243.298C120.544 250.797 116.531 257.726 110.016 261.476L76.3697 280.842C69.8555 284.591 61.8295 284.591 55.3152 280.842L21.6686 261.476C15.1543 257.726 11.1414 250.797 11.1414 243.298V204.567C11.1414 197.068 15.1543 190.139 21.6686 186.39L55.3152 167.024Z" fill="white" fill-opacity="0.26"/>
<path d="M-5.06247 73.533C-1.80535 71.6583 2.20764 71.6583 5.46476 73.533L22.2881 83.2159C25.5453 85.0906 27.5517 88.5552 27.5517 92.3046V111.67C27.5517 115.42 25.5453 118.884 22.2881 120.759L5.46476 130.442C2.20764 132.317 -1.80535 132.317 -5.06247 130.442L-21.8858 120.759C-25.1429 118.884 -27.1494 115.42 -27.1494 111.67V92.3046C-27.1494 88.5552 -25.1429 85.0906 -21.8858 83.2159L-5.06247 73.533Z" fill="white" fill-opacity="0.26"/>
<path d="M55.3152 -74.1508C61.8295 -77.9002 69.8555 -77.9002 76.3697 -74.1508L110.016 -54.785C116.531 -51.0356 120.544 -44.1064 120.544 -36.6076V2.12388C120.544 9.62267 116.531 16.5518 110.016 20.3012L76.3697 39.6671C69.8555 43.4165 61.8295 43.4165 55.3152 39.6671L21.6686 20.3012C15.1543 16.5518 11.1414 9.62267 11.1414 2.12388V-36.6076C11.1414 -44.1064 15.1543 -51.0356 21.6686 -54.785L55.3152 -74.1508Z" fill="white" fill-opacity="0.26"/>
<path d="M186.598 168.12C193.112 164.371 201.138 164.371 207.652 168.12L241.299 187.486C247.813 191.235 251.826 198.164 251.826 205.663V244.395C251.826 251.893 247.813 258.823 241.299 262.572L207.652 281.938C201.138 285.687 193.112 285.687 186.598 281.938L152.951 262.572C146.437 258.823 142.424 251.893 142.424 244.395V205.663C142.424 198.164 146.437 191.235 152.951 187.486L186.598 168.12Z" fill="white" fill-opacity="0.15"/>
<path d="M-10.3261 45.3404C-3.81186 41.591 4.2141 41.591 10.7284 45.3404L44.3749 64.7062C50.8893 68.4556 54.9022 75.3848 54.9022 82.8836V121.615C54.9022 129.114 50.8893 136.043 44.3749 139.792L10.7284 159.158C4.2141 162.908 -3.81186 162.908 -10.3261 159.158L-43.9728 139.792C-50.487 136.043 -54.5 129.114 -54.5 121.615V82.8836C-54.5 75.3848 -50.487 68.4556 -43.9728 64.7062L-10.3261 45.3404Z" fill="white" fill-opacity="0.15"/>
<path d="M186.598 -73.0547C193.112 -76.804 201.138 -76.804 207.652 -73.0547L241.299 -53.6888C247.813 -49.9394 251.826 -43.0102 251.826 -35.5114V3.22007C251.826 10.7189 247.813 17.648 241.299 21.3974L207.652 40.7633C201.138 44.5127 193.112 44.5127 186.598 40.7633L152.951 21.3974C146.437 17.648 142.424 10.7189 142.424 3.22007V-35.5114C142.424 -43.0102 146.437 -49.9394 152.951 -53.6888L186.598 -73.0547Z" fill="white" fill-opacity="0.15"/>
<g filter="url(#filter0_d_638_3613)">
<path d="M121.266 45.3605C127.831 41.5465 135.919 41.5465 142.484 45.3605L176.391 65.06C182.956 68.874 187 75.9225 187 83.5505V122.949C187 130.577 182.956 137.626 176.391 141.44L142.484 161.139C135.919 164.953 127.831 164.953 121.266 161.139L87.3588 141.44C80.7941 137.626 76.75 130.577 76.75 122.949V83.5505C76.75 75.9225 80.7941 68.874 87.3588 65.06L121.266 45.3605Z" fill="white"/>
</g>
<path d="M96.2476 101.77C96.2476 81.6824 109.799 67.4318 127.223 67.4318C139.596 67.4318 150.775 75.3503 155.622 85.8454L148.592 92.5705C145.229 82.7741 137.209 75.9473 127.616 75.9473C113.861 75.9473 105.447 88.6111 105.447 101.784C105.447 120.78 119.8 134.056 139.29 134.056C146.612 134.056 152.842 132.28 157.791 129.602C149.582 136.821 141.663 138.801 133.439 138.801C114.457 138.786 96.2476 125.919 96.2476 101.77ZM166.612 119.092C162.26 125.133 153.352 131.363 139.29 131.363C121.372 131.363 108.111 119.383 108.111 101.77C108.111 89.2952 115.826 78.611 127.602 78.611C130.367 78.611 133.148 79.3097 135.52 80.4888C126.219 81.3767 117.311 87.9124 117.311 101.959C117.311 116.006 128.199 123.43 139.276 123.43C148.475 123.43 153.919 119.965 157.384 116.297V101.261H166.583V119.077L166.612 119.092ZM167.107 84.8411H157.995C154.036 76.4276 147.209 70.3868 139.582 67.228C151.066 67.621 161.649 74.2586 167.093 84.8411H167.107ZM146.714 110.082L154.735 102.949V115.118C152.857 116.996 150.28 118.786 146.714 119.863V110.067V110.082ZM158.883 93.5603H151.168L157.893 87.5194H165.608L158.883 93.5603Z" fill="#213549"/>
</g>
</g>
<defs>
<filter id="filter0_d_638_3613" x="46.75" y="20" width="170.25" height="181.5" filterUnits="userSpaceOnUse" color-interpolation-filters="sRGB">
<feFlood flood-opacity="0" result="BackgroundImageFix"/>
<feColorMatrix in="SourceAlpha" type="matrix" values="0 0 0 0 0 0 0 0 0 0 0 0 0 0 0 0 0 0 127 0" result="hardAlpha"/>
<feOffset dy="7.5"/>
<feGaussianBlur stdDeviation="15"/>
<feComposite in2="hardAlpha" operator="out"/>
<feColorMatrix type="matrix" values="0 0 0 0 0 0 0 0 0 0 0 0 0 0 0 0 0 0 0.5 0"/>
<feBlend mode="normal" in2="BackgroundImageFix" result="effect1_dropShadow_638_3613"/>
<feBlend mode="normal" in="SourceGraphic" in2="effect1_dropShadow_638_3613" result="shape"/>
</filter>
<radialGradient id="paint0_radial_638_3613" cx="0" cy="0" r="1" gradientUnits="userSpaceOnUse" gradientTransform="translate(131.5 103.25) rotate(90) scale(208.5)">
<stop stop-color="white" stop-opacity="0.2"/>
<stop offset="1" stop-color="white" stop-opacity="0"/>
</radialGradient>
<clipPath id="clip0_638_3613">
<rect width="262.5" height="207" fill="white" transform="translate(0.25 0.5)"/>
</clipPath>
</defs>
</svg>
