<?xml version="1.0" encoding="utf-8"?>
<!-- Generator: Adobe Illustrator 26.0.3, SVG Export Plug-In . SVG Version: 6.00 Build 0)  -->
<svg version="1.1" id="Ebene_1" xmlns="http://www.w3.org/2000/svg" xmlns:xlink="http://www.w3.org/1999/xlink" x="0px" y="0px"
	 viewBox="0 0 829 128.61" style="enable-background:new 0 0 829 128.61;" xml:space="preserve">
<style type="text/css">
	.st0{enable-background:new    ;}
	.st1{fill:#727272;}
	.st2{fill:#093587;}
	.st3{fill:#DDDDDD;}
</style>
<g class="st0">
	<path class="st1" d="M23.3,52.64L5.44,5.98H5.15c0.34,3.7,0.5,8.09,0.5,13.18v33.49H0V0h9.22l16.67,43.43h0.29L42.99,0h9.15v52.64
		h-6.12V18.72c0-3.89,0.17-8.11,0.5-12.67h-0.29l-18,46.59H23.3z"/>
	<path class="st1" d="M95.92,52.64H66.58V0h29.35v5.44H72.7V22.4h21.82v5.4H72.7v19.37h23.22V52.64z"/>
	<path class="st1" d="M107.59,52.64V0h6.12v52.64H107.59z"/>
	<path class="st1" d="M169.27,52.64h-6.99L133.52,8.46h-0.29c0.38,5.18,0.58,9.94,0.58,14.26v29.92h-5.65V0h6.91l28.7,44h0.29
		c-0.05-0.65-0.16-2.73-0.32-6.25c-0.17-3.52-0.23-6.03-0.18-7.54V0h5.73V52.64z"/>
</g>
<g class="st0">
	<path class="st2" d="M238.59,0v33.57c0,3.83-0.86,7.19-2.57,10.08c-1.72,2.89-4.19,5.1-7.43,6.64c-3.24,1.54-7.07,2.31-11.5,2.31
		c-6.67,0-11.85-1.71-15.54-5.13c-3.69-3.42-5.54-8.1-5.54-14.03V0h10.96v31.76c0,4,0.8,6.93,2.41,8.8c1.61,1.87,4.27,2.8,7.98,2.8
		c3.6,0,6.2-0.94,7.82-2.82c1.62-1.88,2.43-4.83,2.43-8.85V0H238.59z"/>
	<path class="st2" d="M298.65,52.58h-14.17L261.6,12.8h-0.32c0.46,7.03,0.68,12.04,0.68,15.03v24.74H252V0h14.06l22.84,39.38h0.25
		c-0.36-6.83-0.54-11.66-0.54-14.49V0h10.03V52.58z"/>
	<path class="st2" d="M332.37,52.58h-11.15V9.28h-14.28V0h39.7v9.28h-14.28V52.58z"/>
	<path class="st2" d="M385.02,52.58h-30.28V0h30.28v9.13h-19.13v11.54h17.8v9.14h-17.8v13.56h19.13V52.58z"/>
	<path class="st2" d="M407.13,32.4v20.18h-11.15V0h15.32c7.14,0,12.43,1.3,15.86,3.9c3.43,2.6,5.14,6.55,5.14,11.85
		c0,3.09-0.85,5.84-2.55,8.25c-1.7,2.41-4.11,4.3-7.23,5.66c7.91,11.82,13.07,19.46,15.46,22.91h-12.37L413.07,32.4H407.13z
		 M407.13,23.34h3.6c3.52,0,6.13-0.59,7.8-1.76c1.68-1.17,2.52-3.02,2.52-5.54c0-2.49-0.86-4.27-2.57-5.32
		c-1.71-1.05-4.37-1.58-7.97-1.58h-3.38V23.34z"/>
	<path class="st2" d="M491.25,52.58h-14.17L454.21,12.8h-0.32c0.46,7.03,0.68,12.04,0.68,15.03v24.74h-9.96V0h14.06l22.84,39.38
		h0.25c-0.36-6.83-0.54-11.66-0.54-14.49V0h10.03V52.58z"/>
	<path class="st2" d="M534.77,52.58h-30.28V0h30.28v9.13h-19.13v11.54h17.8v9.14h-17.8v13.56h19.13V52.58z"/>
	<path class="st2" d="M588.82,52.58h-11.11V29.89h-20.82v22.69h-11.15V0h11.15v20.61h20.82V0h11.11V52.58z"/>
	<path class="st2" d="M624.36,52.58L611.7,11.33h-0.32c0.46,8.39,0.68,13.99,0.68,16.8v24.46h-9.96V0h15.18l12.44,40.21h0.21
		L643.13,0h15.18v52.58h-10.39V27.69c0-1.17,0.02-2.53,0.05-4.06c0.04-1.53,0.2-5.61,0.49-12.23h-0.32l-13.56,41.18H624.36z"/>
	<path class="st2" d="M701.82,52.58h-30.28V0h30.28v9.13h-19.13v11.54h17.8v9.14h-17.8v13.56h19.13V52.58z"/>
	<path class="st2" d="M759.44,52.58h-14.17L722.4,12.8h-0.32c0.46,7.03,0.68,12.04,0.68,15.03v24.74h-9.96V0h14.06l22.84,39.38h0.25
		c-0.36-6.83-0.54-11.66-0.54-14.49V0h10.03V52.58z"/>
	<path class="st2" d="M803.23,37.67c0,4.62-1.66,8.26-4.98,10.91c-3.32,2.66-7.95,3.99-13.87,3.99c-5.46,0-10.28-1.03-14.48-3.08
		V39.42c3.45,1.54,6.37,2.62,8.76,3.25c2.39,0.63,4.58,0.94,6.56,0.94c2.38,0,4.2-0.45,5.47-1.36c1.27-0.91,1.91-2.26,1.91-4.06
		c0-1-0.28-1.89-0.84-2.68s-1.38-1.53-2.47-2.26c-1.08-0.72-3.29-1.88-6.63-3.46c-3.13-1.47-5.47-2.88-7.03-4.23
		c-1.56-1.35-2.81-2.93-3.74-4.72c-0.93-1.8-1.4-3.89-1.4-6.3c0-4.52,1.53-8.08,4.6-10.67C778.16,1.29,782.39,0,787.8,0
		c2.66,0,5.19,0.31,7.61,0.94s4.94,1.52,7.57,2.66l-3.5,8.43c-2.73-1.12-4.98-1.9-6.77-2.34c-1.78-0.44-3.54-0.66-5.26-0.66
		c-2.05,0-3.63,0.48-4.72,1.43c-1.1,0.96-1.64,2.2-1.64,3.74c0,0.96,0.22,1.79,0.66,2.5c0.44,0.71,1.15,1.4,2.12,2.06
		c0.97,0.66,3.26,1.86,6.87,3.59c4.78,2.29,8.06,4.58,9.83,6.87C802.34,31.52,803.23,34.34,803.23,37.67z"/>
	<path class="st2" d="M809,37v-9h20v9H809z"/>
</g>
<g class="st0">
	<path class="st2" d="M238.29,128.58h-12.66l-13.77-22.15l-4.71,3.38v18.77H196V76h11.15v24.06l4.39-6.19L225.78,76h12.37
		l-18.34,23.27L238.29,128.58z"/>
	<path class="st2" d="M292.12,102.29c0,8.46-2.1,14.96-6.29,19.51c-4.19,4.55-10.21,6.82-18.04,6.82c-7.83,0-13.84-2.27-18.04-6.82
		c-4.2-4.54-6.29-11.07-6.29-19.58c0-8.51,2.1-15,6.31-19.49c4.21-4.49,10.24-6.73,18.09-6.73c7.85,0,13.86,2.26,18.02,6.78
		C290.04,87.3,292.12,93.81,292.12,102.29z M254.82,102.29c0,5.71,1.08,10.01,3.25,12.9c2.17,2.89,5.41,4.33,9.72,4.33
		c8.65,0,12.97-5.75,12.97-17.24c0-11.51-4.3-17.27-12.9-17.27c-4.31,0-7.56,1.45-9.75,4.35
		C255.92,92.27,254.82,96.58,254.82,102.29z"/>
	<path class="st2" d="M350.18,128.58h-14.17L313.14,88.8h-0.32c0.46,7.03,0.68,12.04,0.68,15.03v24.74h-9.96V76h14.06l22.84,39.38
		h0.25c-0.36-6.83-0.54-11.66-0.54-14.49V76h10.03V128.58z"/>
	<path class="st2" d="M383.7,128.58h-11.15v-43.3h-14.28V76h39.7v9.28H383.7V128.58z"/>
	<path class="st2" d="M452.7,102.29c0,8.46-2.1,14.96-6.29,19.51c-4.19,4.55-10.21,6.82-18.04,6.82c-7.83,0-13.84-2.27-18.04-6.82
		c-4.2-4.54-6.29-11.07-6.29-19.58c0-8.51,2.1-15,6.31-19.49c4.21-4.49,10.24-6.73,18.09-6.73c7.85,0,13.86,2.26,18.02,6.78
		C450.62,87.3,452.7,93.81,452.7,102.29z M415.4,102.29c0,5.71,1.08,10.01,3.25,12.9c2.17,2.89,5.41,4.33,9.72,4.33
		c8.65,0,12.97-5.75,12.97-17.24c0-11.51-4.3-17.27-12.9-17.27c-4.31,0-7.56,1.45-9.75,4.35C416.5,92.27,415.4,96.58,415.4,102.29z"
		/>
</g>
<rect id="Rechteck_65" y="76" class="st3" width="169" height="52.61"/>
</svg>
