<svg width="220" height="134" viewBox="0 0 220 134" fill="none" xmlns="http://www.w3.org/2000/svg">
<g clip-path="url(#clip0_1641_8799)">
<path d="M112.86 108.361L35.9507 128.119C33.3418 128.786 30.5743 128.394 28.2552 127.028C25.9361 125.662 24.2549 123.434 23.5803 120.832L0.322343 30.7229C-0.346292 28.1202 0.0471991 25.3592 1.41649 23.0456C2.78578 20.732 5.01905 19.0548 7.62636 18.3818L79.1776 0.000244141L97.4899 8.179L120.164 96.0199C120.832 98.6226 120.439 101.384 119.07 103.697C117.7 106.011 115.467 107.688 112.86 108.361Z" fill="#F2F2F2"/>
<path d="M8.35424 21.207C6.49751 21.6862 4.90712 22.8806 3.932 24.5282C2.95688 26.1757 2.67664 28.1419 3.15277 29.9953L26.4122 120.105C26.8925 121.958 28.0898 123.544 29.7412 124.517C31.3927 125.49 33.3635 125.769 35.2213 125.294L112.13 105.537C113.987 105.057 115.577 103.863 116.553 102.216C117.528 100.568 117.808 98.6018 117.332 96.7484L95.0093 10.2678L78.915 3.07983L8.35424 21.207Z" fill="white"/>
<path d="M97.2946 8.64453L85.3918 11.7024C84.5229 11.9256 83.6007 11.7953 82.828 11.3401C82.0554 10.885 81.4957 10.1423 81.2719 9.27544L79.0081 0.505041C78.9982 0.466664 78.9994 0.426296 79.0115 0.388555C79.0235 0.350814 79.046 0.317224 79.0763 0.291632C79.1066 0.26604 79.1436 0.249482 79.1829 0.243846C79.2222 0.23821 79.2623 0.243725 79.2986 0.259764L97.3278 8.24746C97.3678 8.26526 97.4014 8.29507 97.4238 8.33275C97.4461 8.37043 97.4562 8.41412 97.4525 8.45776C97.4489 8.50139 97.4317 8.54281 97.4034 8.57628C97.3751 8.60974 97.3371 8.6336 97.2946 8.64453Z" fill="#F2F2F2"/>
<path d="M91.0328 85.5955L56.0173 94.5919C55.5838 94.7006 55.1248 94.6338 54.7405 94.406C54.3562 94.1781 54.078 93.8079 53.9665 93.376C53.8551 92.9442 53.9195 92.4858 54.1457 92.1012C54.3718 91.7166 54.7414 91.4369 55.1737 91.3233L90.1892 82.3269C90.4048 82.2703 90.6295 82.2567 90.8504 82.2869C91.0713 82.3172 91.284 82.3907 91.4763 82.5032C91.6686 82.6158 91.8367 82.7652 91.9709 82.9428C92.1052 83.1203 92.2029 83.3226 92.2585 83.538C92.3141 83.7534 92.3264 83.9777 92.2949 84.1979C92.2633 84.418 92.1884 84.6298 92.0745 84.821C91.9606 85.0122 91.8099 85.1791 91.6312 85.312C91.4524 85.4449 91.2491 85.5413 91.0328 85.5955Z" fill="#CCCCCC"/>
<path d="M99.2135 89.3752L57.4405 100.107C57.2249 100.164 57.0003 100.177 56.7794 100.147C56.5585 100.117 56.3458 100.043 56.1535 99.9306C55.9612 99.8181 55.7931 99.6687 55.6589 99.4911C55.5246 99.3135 55.4269 99.1112 55.3713 98.8958C55.3157 98.6804 55.3033 98.4562 55.3349 98.236C55.3665 98.0158 55.4414 97.804 55.5553 97.6128C55.6692 97.4216 55.8198 97.2548 55.9986 97.1219C56.1774 96.989 56.3807 96.8926 56.5969 96.8384L98.3699 86.1066C98.8034 85.9979 99.2624 86.0647 99.6467 86.2925C100.031 86.5203 100.309 86.8906 100.421 87.3225C100.532 87.7543 100.468 88.2126 100.242 88.5973C100.015 88.9819 99.6457 89.2616 99.2135 89.3752Z" fill="#CCCCCC"/>
<path d="M41.7258 105.426C45.0279 105.426 47.7048 102.755 47.7048 99.4607C47.7048 96.1664 45.0279 93.4958 41.7258 93.4958C38.4237 93.4958 35.7468 96.1664 35.7468 99.4607C35.7468 102.755 38.4237 105.426 41.7258 105.426Z" fill="#DCDCDC"/>
<path d="M87.3093 69.9856L40.8049 81.9282C39.4609 82.2717 38.0352 82.0694 36.8406 81.3655C35.6459 80.6617 34.7799 79.5138 34.4326 78.1737L24.6874 40.4041C24.3433 39.0634 24.5463 37.6414 25.2518 36.4498C25.9573 35.2583 27.1077 34.3946 28.4507 34.048L74.9549 22.1055C76.2988 21.7619 77.7246 21.9642 78.9192 22.6681C80.1138 23.372 80.9798 24.5198 81.3271 25.8599L91.0727 63.6296C91.4167 64.9702 91.2137 66.3923 90.5082 67.5838C89.8027 68.7753 88.6523 69.6391 87.3093 69.9856Z" fill="white"/>
<path d="M87.3093 69.9856L40.8049 81.9282C39.4609 82.2717 38.0352 82.0694 36.8406 81.3655C35.6459 80.6617 34.7799 79.5138 34.4326 78.1737L24.6874 40.4041C24.3433 39.0634 24.5463 37.6414 25.2518 36.4498C25.9573 35.2583 27.1077 34.3946 28.4507 34.048L74.9549 22.1055C76.2988 21.7619 77.7246 21.9642 78.9192 22.6681C80.1138 23.372 80.9798 24.5198 81.3271 25.8599L91.0727 63.6296C91.4167 64.9702 91.2137 66.3923 90.5082 67.5838C89.8027 68.7753 88.6523 69.6391 87.3093 69.9856ZM28.604 34.6417C27.4191 34.9478 26.4042 35.7102 25.7819 36.7618C25.1597 37.8134 24.9809 39.0682 25.2848 40.2511L35.0304 78.0208C35.3371 79.2029 36.1014 80.2154 37.1554 80.8362C38.2095 81.457 39.4673 81.6353 40.653 81.3321L87.1563 69.3907C88.3413 69.0847 89.3562 68.3223 89.9784 67.2707C90.6006 66.2191 90.7794 64.9643 90.4755 63.7814L80.7309 26.0117C80.4241 24.8295 79.6598 23.817 78.6058 23.1963C77.5517 22.5755 76.2939 22.3971 75.1082 22.7003L28.604 34.6417Z" fill="#E6E6E6"/>
<path d="M72.5957 34.8041L49.1263 40.8313C48.9211 40.8885 48.7019 40.8658 48.5128 40.7679C48.3238 40.67 48.1791 40.5041 48.1079 40.3039C48.0748 40.1992 48.0634 40.0889 48.0744 39.9797C48.0854 39.8705 48.1186 39.7646 48.172 39.6686C48.2254 39.5727 48.2978 39.4885 48.3849 39.4214C48.4719 39.3543 48.5718 39.3056 48.6783 39.2782L72.5693 33.1428C73.5345 33.6307 73.2804 34.6285 72.596 34.8044L72.5957 34.8041Z" fill="#F2F2F2"/>
<path d="M73.6545 38.9098L50.1851 44.937C49.98 44.9942 49.7607 44.9715 49.5717 44.8736C49.3826 44.7757 49.2379 44.6098 49.1667 44.4096C49.1336 44.3049 49.1222 44.1946 49.1332 44.0854C49.1443 43.9762 49.1775 43.8703 49.2308 43.7744C49.2842 43.6784 49.3567 43.5943 49.4437 43.5271C49.5307 43.46 49.6306 43.4113 49.7371 43.3839L73.6281 37.2485C74.5933 37.7364 74.3392 38.7343 73.6548 38.9101L73.6545 38.9098Z" fill="#F2F2F2"/>
<path d="M45.715 48.5796L38.5522 50.4185C38.4364 50.4483 38.3158 50.455 38.1974 50.4382C38.0789 50.4215 37.9649 50.3817 37.8619 50.321C37.7589 50.2603 37.6689 50.18 37.5971 50.0846C37.5252 49.9892 37.4729 49.8806 37.4431 49.765L35.2671 41.3342C35.2372 41.2187 35.2305 41.0984 35.2473 40.9802C35.264 40.862 35.304 40.7483 35.3648 40.6456C35.4256 40.5428 35.5062 40.453 35.6018 40.3813C35.6974 40.3096 35.8063 40.2574 35.9221 40.2277L43.0848 38.3883C43.3188 38.3285 43.5669 38.3638 43.7748 38.4863C43.9828 38.6088 44.1335 38.8086 44.194 39.0418L46.37 47.4746C46.3998 47.5902 46.4066 47.7105 46.3898 47.8286C46.373 47.9468 46.3331 48.0605 46.2723 48.1632C46.2115 48.266 46.1309 48.3558 46.0353 48.4275C45.9397 48.4992 45.8308 48.5514 45.715 48.5811V48.5796Z" fill="#DCDCDC"/>
<path d="M75.7568 47.3381L39.9373 56.5366C39.7322 56.5937 39.5129 56.571 39.3239 56.4731C39.1348 56.3752 38.9901 56.2094 38.9189 56.0091C38.8858 55.9044 38.8744 55.7941 38.8854 55.6849C38.8965 55.5757 38.9297 55.4699 38.9831 55.3739C39.0364 55.2779 39.1089 55.1938 39.1959 55.1267C39.283 55.0596 39.3828 55.0108 39.4894 54.9835L75.7304 45.6765C76.6956 46.1644 76.4412 47.1622 75.7568 47.3381Z" fill="#F2F2F2"/>
<path d="M76.8175 51.4459L40.9974 60.6447C40.7922 60.7019 40.573 60.6792 40.3839 60.5813C40.1949 60.4834 40.0502 60.3175 39.979 60.1173C39.9459 60.0126 39.9345 59.9023 39.9455 59.7931C39.9565 59.6839 39.9897 59.578 40.0431 59.4821C40.0965 59.3861 40.1689 59.302 40.256 59.2348C40.343 59.1677 40.4429 59.119 40.5494 59.0916L76.7905 49.7847C77.7557 50.2726 77.5016 51.2704 76.8172 51.4462L76.8175 51.4459Z" fill="#F2F2F2"/>
<path d="M77.876 55.5519L42.0564 64.7505C41.8513 64.8076 41.6321 64.7849 41.443 64.687C41.254 64.5891 41.1092 64.4233 41.0381 64.223C41.0049 64.1183 40.9935 64.008 41.0046 63.8988C41.0156 63.7896 41.0488 63.6838 41.1022 63.5878C41.1556 63.4918 41.228 63.4077 41.315 63.3406C41.4021 63.2734 41.5019 63.2247 41.6085 63.1973L77.8492 53.8904C78.8145 54.3783 78.5604 55.3761 77.876 55.5519Z" fill="#F2F2F2"/>
<path d="M78.9363 59.6598L43.1165 68.8584C42.9113 68.9155 42.6921 68.8928 42.5031 68.7949C42.314 68.697 42.1693 68.5312 42.0981 68.3309C42.065 68.2262 42.0536 68.1159 42.0646 68.0067C42.0757 67.8975 42.1089 67.7917 42.1623 67.6957C42.2156 67.5997 42.2881 67.5156 42.3751 67.4485C42.4622 67.3813 42.562 67.3326 42.6686 67.3053L78.9096 57.9983C79.8745 58.4862 79.6207 59.484 78.9363 59.6598Z" fill="#F2F2F2"/>
<path d="M79.9956 63.7655L44.1761 72.9641C43.9709 73.0212 43.7517 72.9985 43.5626 72.9006C43.3736 72.8027 43.2289 72.6369 43.1577 72.4366C43.1246 72.3319 43.1132 72.2216 43.1242 72.1124C43.1352 72.0032 43.1684 71.8974 43.2218 71.8014C43.2752 71.7054 43.3476 71.6213 43.4347 71.5542C43.5217 71.487 43.6216 71.4383 43.7281 71.411L79.9692 62.104C80.9341 62.5919 80.68 63.5897 79.9956 63.7655Z" fill="#F2F2F2"/>
<path d="M42.167 101.552C42.0368 101.585 41.8991 101.576 41.7748 101.525L41.7672 101.521L40.1384 100.832C40.0629 100.8 39.9945 100.754 39.9371 100.695C39.8796 100.637 39.8343 100.568 39.8036 100.492C39.773 100.416 39.7576 100.335 39.7583 100.253C39.7591 100.171 39.776 100.091 39.8081 100.015C39.8402 99.94 39.8869 99.8717 39.9454 99.8144C40.0039 99.7571 40.0732 99.7119 40.1492 99.6813C40.2253 99.6507 40.3067 99.6353 40.3887 99.6361C40.4707 99.6369 40.5517 99.6538 40.6272 99.6858L41.6826 100.134L43.0655 96.8878C43.1303 96.7358 43.2529 96.6158 43.4064 96.554C43.56 96.4922 43.7318 96.4938 43.8841 96.5584L43.8759 96.5795L43.8844 96.5581C44.0367 96.6229 44.157 96.7453 44.2189 96.8985C44.2809 97.0517 44.2793 97.2231 44.2146 97.3751L42.5876 101.191C42.5498 101.279 42.4923 101.358 42.4194 101.42C42.3465 101.482 42.2602 101.527 42.1672 101.55L42.167 101.552Z" fill="white"/>
<path d="M188.344 132.068L110.395 116.96C107.752 116.445 105.423 114.904 103.917 112.677C102.412 110.449 101.853 107.716 102.365 105.078L120.172 13.7279C120.69 11.0907 122.234 8.76565 124.467 7.26276C126.699 5.75986 129.438 5.20189 132.082 5.71126L204.6 19.7669L217.613 35.0007L200.254 124.051C199.737 126.688 198.192 129.013 195.96 130.517C193.727 132.02 190.988 132.578 188.344 132.068Z" fill="#E6E6E6"/>
<path d="M131.524 8.57559C129.641 8.21288 127.691 8.61022 126.101 9.68045C124.511 10.7507 123.411 12.4064 123.043 14.2843L105.235 105.634C104.871 107.513 105.269 109.459 106.341 111.045C107.413 112.631 109.072 113.728 110.954 114.095L188.902 129.203C190.785 129.566 192.735 129.169 194.325 128.098C195.915 127.028 197.015 125.372 197.383 123.494L214.474 35.8245L203.038 22.4366L131.524 8.57559Z" fill="white"/>
<path d="M189.133 47.3129L153.639 40.4316C153.199 40.3462 152.811 40.0897 152.56 39.7185C152.309 39.3473 152.216 38.8917 152.302 38.4522C152.388 38.0126 152.645 37.6249 153.017 37.3744C153.389 37.124 153.845 37.0312 154.286 37.1166L189.78 43.9981C190.22 44.0835 190.608 44.34 190.859 44.7112C191.11 45.0825 191.203 45.538 191.117 45.9776C191.031 46.4171 190.774 46.8048 190.402 47.0553C190.03 47.3057 189.574 47.3985 189.134 47.3131L189.133 47.3129Z" fill="#DCDCDC"/>
<path d="M194.893 54.2325L152.55 46.023C152.11 45.9376 151.721 45.6811 151.471 45.3099C151.22 44.9386 151.127 44.4831 151.213 44.0435C151.298 43.6039 151.555 43.2162 151.927 42.9658C152.299 42.7153 152.756 42.6225 153.196 42.7079L195.539 50.9175C195.979 51.0029 196.368 51.2594 196.619 51.6306C196.869 52.0018 196.962 52.4574 196.877 52.897C196.791 53.3366 196.534 53.7242 196.162 53.9747C195.79 54.2252 195.333 54.3179 194.893 54.2325Z" fill="#DCDCDC"/>
<path d="M184.897 69.0532L149.405 62.172C148.965 62.0866 148.508 62.1794 148.136 62.4298C147.764 62.6802 147.507 63.0679 147.422 63.5074C147.336 63.947 147.429 64.4025 147.68 64.7736C147.93 65.1448 148.319 65.4013 148.759 65.4867L184.251 72.3679C184.689 72.4468 185.14 72.3504 185.507 72.0997C185.875 71.849 186.128 71.464 186.213 71.0282C186.298 70.5924 186.207 70.1408 185.961 69.7712C185.715 69.4015 185.333 69.1436 184.897 69.0532Z" fill="#CCCCCC"/>
<path d="M190.658 75.9733L148.315 67.7638C148.096 67.7183 147.87 67.7167 147.65 67.7592C147.43 67.8016 147.221 67.8872 147.034 68.0111C146.848 68.1349 146.687 68.2945 146.563 68.4806C146.439 68.6667 146.353 68.8755 146.31 69.095C146.267 69.3145 146.269 69.5403 146.314 69.7593C146.359 69.9783 146.448 70.186 146.574 70.3706C146.701 70.5551 146.863 70.7127 147.051 70.8343C147.239 70.9558 147.449 71.0389 147.669 71.0786L190.012 79.288C190.231 79.3335 190.457 79.3351 190.677 79.2926C190.897 79.2502 191.106 79.1646 191.293 79.0407C191.479 78.9169 191.64 78.7573 191.764 78.5712C191.888 78.3852 191.974 78.1763 192.017 77.9568C192.06 77.7373 192.058 77.5115 192.013 77.2925C191.968 77.0736 191.879 76.8658 191.753 76.6812C191.626 76.4967 191.464 76.3391 191.276 76.2176C191.088 76.096 190.878 76.013 190.658 75.9733Z" fill="#CCCCCC"/>
<path d="M179.369 97.425L143.876 90.5436C143.435 90.4583 143.047 90.2017 142.796 89.8305C142.545 89.4593 142.452 89.0038 142.538 88.5642C142.624 88.1246 142.881 87.737 143.253 87.4865C143.625 87.236 144.081 87.1433 144.522 87.2287L180.016 94.1102C180.456 94.1956 180.844 94.4521 181.095 94.8233C181.346 95.1945 181.439 95.65 181.353 96.0896C181.267 96.5292 181.01 96.9169 180.638 97.1673C180.266 97.4178 179.81 97.5105 179.37 97.4252L179.369 97.425Z" fill="#CCCCCC"/>
<path d="M185.129 104.344L142.786 96.1346C142.346 96.0492 141.957 95.7926 141.707 95.4214C141.456 95.0502 141.363 94.5947 141.449 94.1551C141.534 93.7155 141.791 93.3278 142.163 93.0773C142.535 92.8269 142.992 92.7341 143.432 92.8195L185.775 101.029C186.216 101.114 186.604 101.371 186.855 101.742C187.106 102.113 187.198 102.569 187.113 103.009C187.027 103.448 186.77 103.836 186.398 104.086C186.026 104.337 185.57 104.429 185.129 104.344Z" fill="#CCCCCC"/>
<path d="M137.495 44.5588C140.737 45.187 143.875 43.0744 144.505 39.8403C145.136 36.6061 143.02 33.4751 139.779 32.8469C136.538 32.2187 133.399 34.3313 132.769 37.5654C132.138 40.7996 134.254 43.9306 137.495 44.5588Z" fill="#DCDCDC"/>
<path d="M137.62 40.8238C137.488 40.7985 137.368 40.731 137.278 40.6315L137.272 40.6253L136.098 39.305C135.991 39.1809 135.937 39.0197 135.948 38.8562C135.959 38.6927 136.034 38.5402 136.157 38.4315C136.28 38.3229 136.441 38.267 136.605 38.2758C136.769 38.2847 136.923 38.3576 137.033 38.4789L137.794 39.3357L140.44 36.9966C140.501 36.9424 140.573 36.9007 140.65 36.8741C140.728 36.8474 140.81 36.8362 140.892 36.8412C140.974 36.8462 141.054 36.8672 141.127 36.903C141.201 36.9388 141.267 36.9888 141.321 37.0501L141.305 37.0651L141.322 37.0496C141.431 37.1734 141.487 37.3355 141.477 37.5003C141.467 37.6652 141.392 37.8193 141.268 37.9289L138.155 40.679C138.083 40.7423 137.997 40.7882 137.904 40.8132C137.812 40.8382 137.715 40.8415 137.621 40.823L137.62 40.8238Z" fill="white"/>
<path d="M140.227 65.0124C140.077 65.7816 139.777 66.5138 139.344 67.1673C138.911 67.8209 138.353 68.3829 137.702 68.8213C137.051 69.2596 136.32 69.5658 135.551 69.7223C134.781 69.8787 133.989 69.8825 133.218 69.7332C133.167 69.7244 133.117 69.7126 133.068 69.6979C131.92 69.4447 130.872 68.8593 130.056 68.0148C129.24 67.1704 128.692 66.1045 128.48 64.9505C128.268 63.7965 128.401 62.6057 128.864 61.527C129.327 60.4483 130.099 59.5297 131.082 58.8862C132.065 58.2426 133.217 57.9026 134.393 57.9088C135.569 57.915 136.716 58.2671 137.692 58.921C138.669 59.5749 139.43 60.5015 139.88 61.585C140.331 62.6685 140.452 63.8607 140.227 65.0124Z" fill="#DCDCDC"/>
<path d="M127.732 94.6706C130.973 95.2988 134.111 93.1863 134.742 89.9521C135.372 86.7179 133.256 83.5869 130.015 82.9587C126.774 82.3305 123.635 84.4431 123.005 87.6773C122.374 90.9114 124.491 94.0425 127.732 94.6706Z" fill="#DCDCDC"/>
<path d="M217.236 35.3478L205.172 33.0096C204.291 32.8389 203.515 32.326 203.013 31.5839C202.512 30.8417 202.326 29.9311 202.497 29.0522L204.231 20.1609C204.238 20.122 204.257 20.086 204.284 20.057C204.311 20.0281 204.346 20.0074 204.384 19.9972C204.423 19.9871 204.463 19.988 204.501 19.9997C204.539 20.0115 204.573 20.0337 204.599 20.0638L217.437 35.0025C217.466 35.0358 217.483 35.0771 217.487 35.1207C217.491 35.1643 217.481 35.2081 217.459 35.2459C217.437 35.2837 217.404 35.3138 217.364 35.3319C217.324 35.35 217.279 35.3553 217.236 35.347L217.236 35.3478Z" fill="#CCCCCC"/>
<path d="M145.721 124.235C145.349 124.843 144.751 125.278 144.058 125.446C143.364 125.614 142.633 125.5 142.023 125.129L110.637 106.03C110.028 105.659 109.591 105.062 109.423 104.371C109.255 103.679 109.37 102.949 109.741 102.341C110.113 101.734 110.711 101.298 111.404 101.13C112.098 100.963 112.829 101.077 113.439 101.448L144.825 120.547C145.434 120.917 145.87 121.514 146.038 122.206C146.206 122.898 146.092 123.628 145.721 124.235Z" fill="#142638"/>
<path d="M114.334 105.137C112.118 108.763 108.874 111.651 105.012 113.437C101.15 115.222 96.8447 115.826 92.6394 115.17C88.4341 114.515 84.5181 112.63 81.3865 109.754C78.2549 106.878 76.0485 103.141 75.0461 99.0137C74.0438 94.8869 74.2907 90.5562 75.7554 86.5693C77.2202 82.5824 79.8371 79.1184 83.2753 76.6153C86.7134 74.1121 90.8184 72.6823 95.0711 72.5067C99.3238 72.331 103.533 73.4173 107.167 75.6283C109.58 77.0964 111.679 79.0242 113.345 81.3017C115.011 83.5792 116.211 86.1618 116.877 88.902C117.542 91.6422 117.66 94.4863 117.224 97.272C116.788 100.058 115.806 102.73 114.334 105.137ZM82.1825 85.5712C80.5202 88.2901 79.7035 91.4397 79.8355 94.6217C79.9676 97.8037 81.0425 100.875 82.9243 103.448C84.8061 106.02 87.4103 107.978 90.4076 109.074C93.4049 110.17 96.6606 110.355 99.7631 109.605C102.866 108.855 105.676 107.204 107.838 104.861C109.999 102.518 111.416 99.5877 111.909 96.4411C112.402 93.2946 111.948 90.0729 110.606 87.1835C109.263 84.2941 107.092 81.8668 104.367 80.2085C100.712 77.9848 96.3215 77.3006 92.1612 78.3063C88.0009 79.312 84.4114 81.9252 82.1825 85.5712Z" fill="#142638"/>
<path d="M90.271 109.528C99.0151 112.532 108.544 107.895 111.555 99.1717C114.566 90.4482 109.918 80.9415 101.174 77.9378C92.4301 74.934 82.9008 79.5708 79.8899 88.2942C76.8791 97.0177 81.5268 106.524 90.271 109.528Z" fill="#F2F2F2"/>
</g>
<defs>
<clipPath id="clip0_1641_8799">
<rect width="220" height="134" fill="white"/>
</clipPath>
</defs>
</svg>
