<?xml version="1.0" standalone="no"?>
<!DOCTYPE svg PUBLIC "-//W3C//DTD SVG 1.1//EN" "http://www.w3.org/Graphics/SVG/1.1/DTD/svg11.dtd">
<svg xmlns="http://www.w3.org/2000/svg">
<defs >
<font id="PublicSans" horiz-adv-x="1031" ><font-face
    font-family="Public Sans Thin Medium"
    units-per-em="2000"
    panose-1="0 0 0 0 0 0 0 0 0 0"
    ascent="1900"
    descent="-450"
    alphabetic="0" />
<glyph unicode=" " horiz-adv-x="476" />
<glyph unicode="!" horiz-adv-x="513" d="M161 389L257 1446H506L298 389H161ZM51 0L88 255H329L291 0H51Z" />
<glyph unicode="&quot;" horiz-adv-x="873" d="M626 954L637 1446H874L740 954H626ZM249 954L260 1446H497L363 954H249Z" />
<glyph unicode="#" horiz-adv-x="1172" d="M780 -4L655 14L872 1449L996 1435L780 -4ZM78 464V587H1082V464H78ZM366 -4L242 14L459 1449L582 1435L366 -4ZM142 874V997H1146V874H142Z" />
<glyph unicode="$" horiz-adv-x="1280" d="M582 -20Q355 -20 223 80T94 380L314 391Q326 275 404 217T608 158Q684 158 752 185T867 262T922 376Q937 468 892 520T739 602L514 664Q365 703 288 793T231 1037Q249 1165 329 1261T532 1410T803 1464Q949 1464 1046
1407T1188 1256T1218 1049L1005 1040Q1004 1120 981 1175T908 1258T778 1287Q700 1287 632 1261T517 1183T460 1059Q450 985 492 942T657 859L873 794Q1045 744 1106 635T1147 379Q1129 261 1053 171T856 31T582 -20ZM458 -204L496 55H684L646 -204H458ZM700 1401L738
1660H927L889 1401H700Z" />
<glyph unicode="%" horiz-adv-x="1699" d="M359 -8L227 -6L1371 1462H1501L359 -8ZM442 644Q361 644 300 685T205 799T171 968Q171 1042 194 1128T264 1291T385 1418T558 1468Q638 1468 698 1427T791 1313T825 1141Q825 1061 801 974T728 812T608 691T442 644ZM456
760Q518 760 560 801T628 906T665 1035T677 1152Q677 1245 645 1299T540 1353Q480 1353 438 1312T369 1207T331 1077T319 961Q319 869 351 815T456 760ZM1192 -20Q1111 -20 1050 21T955 135T921 304Q921 387 946 475T1021 637T1143 758T1307 805Q1388 805 1448
764T1541 649T1575 479Q1575 397 1551 310T1478 148T1358 27T1192 -20ZM1206 97Q1267 97 1309 138T1377 242T1414 371T1426 488Q1426 581 1394 635T1289 689Q1230 689 1188 647T1120 542T1081 413T1069 297Q1069 206 1100 152T1206 97Z" />
<glyph unicode="&amp;" horiz-adv-x="1402" d="M438 -10Q298 -10 211 37T87 169T67 363Q81 459 129 535T260 677T465 804Q421 863 391 916T348 1025T344 1145Q358 1236 416 1309T564 1425T764 1468Q870 1468 953 1430T1080 1322T1110 1158Q1101 1104 1063 1041T946
908T734 768L958 426Q979 454 1011 507T1074 632T1123 790H1334Q1303 691 1255 606T1152 445T1043 299L1244 0H1002L896 156Q776 67 660 29T438 -10ZM511 159Q583 159 664 193T811 285L551 677Q451 623 380 546T301 371Q293 272 356 216T511 159ZM660 883Q758 939
813 984T891 1070T921 1152Q930 1215 908 1254T843 1310T750 1327Q668 1326 616 1276T555 1158Q549 1113 560 1069T592 987T631 923L660 883Z" />
<glyph unicode="&apos;" horiz-adv-x="496" d="M249 954L260 1446H497L363 954H249Z" />
<glyph unicode="(" horiz-adv-x="610" d="M282 -258Q223 -117 185 19T135 303T149 620Q186 868 294 1096T550 1510H695Q571 1316 475 1086T344 618Q312 393 334 180T426 -258H282Z" />
<glyph unicode=")" horiz-adv-x="621" d="M-74 -260Q51 -65 146 165T277 632Q310 859 287 1071T195 1508H340Q398 1367 436 1231T486 947T472 630Q436 382 328 154T71 -260H-74Z" />
<glyph unicode="*" horiz-adv-x="830" d="M341 733L219 818L412 1056L141 1132L188 1264L447 1157L427 1446H578L558 1156L820 1270L862 1139L597 1057L786 827L662 739L504 998L341 733Z" />
<glyph unicode="+" horiz-adv-x="1092" d="M433 285L561 1171H719L591 285H433ZM139 645L163 808L1011 809L987 646L139 645Z" />
<glyph unicode="," horiz-adv-x="495" d="M-20 -259L124 -5L37 1L73 239H312L282 31L68 -259H-20Z" />
<glyph unicode="-" horiz-adv-x="741" d="M111 433L134 597L629 598L606 435L111 433Z" />
<glyph unicode="." horiz-adv-x="470" d="M34 0L73 258H313L275 0H34Z" />
<glyph unicode="/" horiz-adv-x="696" d="M-56 -66L642 1446H797L99 -66H-56Z" />
<glyph unicode="0" horiz-adv-x="1202" d="M526 -22Q290 -22 181 165T123 718Q157 963 243 1129T455 1381T736 1466Q969 1466 1079 1277T1137 720Q1086 355 924 167T526 -22ZM552 160Q693 160 781 290T911 719Q954 1023 902 1156T710 1290Q571 1290 480 1156T345
719Q304 422 358 291T552 160Z" />
<glyph unicode="1" horiz-adv-x="808" d="M272 0L438 1132H178L197 1265Q319 1265 392 1285T503 1346T554 1446H697L486 0H272Z" />
<glyph unicode="2" horiz-adv-x="1175" d="M47 0L64 121L73 185Q91 314 156 403T314 556T506 671T697 773T850 890T925 1047Q940 1151 880 1216T702 1281Q618 1281 550 1247T434 1150T365 999H159Q179 1128 251 1234T446 1403T735 1466Q880 1466 978 1414T1120
1267T1147 1048Q1129 919 1065 831T910 682T722 573T534 476T385 365T311 211L308 186H1031L1004 0H47Z" />
<glyph unicode="3" horiz-adv-x="1239" d="M520 -22Q370 -21 266 33T114 188T81 424H288Q289 293 361 226T551 158Q648 158 723 189T845 276T902 406Q914 486 879 542T776 627T616 659L489 662L514 840L634 844Q720 846 791 878T907 964T962 1081Q970 1139 943
1187T857 1263T710 1292Q638 1292 570 1264T452 1176T385 1018H179Q200 1163 281 1262T481 1414T737 1466Q885 1466 992 1423T1153 1296T1189 1089Q1174 982 1099 897T882 763Q966 738 1026 690T1114 569T1128 402Q1114 301 1062 222T927 88T741 5T520 -22Z" />
<glyph unicode="4" horiz-adv-x="1224" d="M660 0L712 356H69L97 544L864 1446H1074L944 541H1166L1139 356H915L864 0H660ZM294 541H738L829 1174L294 541Z" />
<glyph unicode="5" horiz-adv-x="1257" d="M573 -22Q441 -22 337 24T163 152T69 341L256 426Q281 348 322 287T428 191T580 156Q720 156 817 239T934 466Q946 555 916 622T823 726T677 764Q626 764 579 755T484 718T377 636Q367 632 364 632T351 637L194 699L361
1446H1209L1177 1265H510L417 830Q496 890 577 916T751 943Q881 943 980 889T1129 731T1157 473Q1137 322 1058 211T854 39T573 -22Z" />
<glyph unicode="6" horiz-adv-x="1225" d="M560 -22Q393 -22 284 65T132 314T120 699Q153 933 242 1105T468 1372T783 1466Q903 1466 998 1420T1146 1288T1196 1078H1000Q987 1178 926 1234T762 1291Q647 1291 561 1223T421 1023T354 707Q392 773 450 822T579
899T728 926Q866 926 961 871T1101 714T1125 472Q1106 328 1029 217T831 42T560 -22ZM580 150Q659 150 726 189T840 299T898 462Q912 555 888 621T807 722T664 757Q593 757 524 723T406 632T347 510Q332 403 355 322T437 196T580 150Z" />
<glyph unicode="7" horiz-adv-x="1171" d="M262 0Q288 96 345 239T490 552T695 906T957 1265H196L223 1446H1211L1182 1265Q1098 1164 1009 1035T837 765T682 483T561 218T489 0H262Z" />
<glyph unicode="8" horiz-adv-x="1265" d="M556 -22Q394 -22 281 29T113 174T77 394Q89 478 140 554T261 684T401 751Q315 793 266 872T232 1068Q250 1196 325 1284T515 1419T765 1466Q901 1466 1002 1420T1154 1285T1186 1068Q1170 952 1099 873T929 751Q995
737 1050 684T1135 555T1153 394Q1136 268 1056 175T848 30T556 -22ZM580 147Q724 147 818 215T927 397Q938 472 908 530T813 622T651 656Q556 656 481 623T360 531T303 397Q287 284 362 216T580 147ZM677 839Q793 839 875 901T973 1073Q989 1184 924 1248T743
1312Q628 1312 546 1248T447 1073Q432 963 497 901T677 839Z" />
<glyph unicode="9" horiz-adv-x="1227" d="M497 -22Q378 -22 281 25T129 159T76 366H279Q288 271 350 212T515 153Q630 153 722 215T874 408T952 746Q918 676 860 624T728 541T570 511Q432 511 334 567T191 726T166 974Q186 1118 262 1229T457 1403T727 1466Q893
1466 1002 1379T1154 1131T1165 747Q1131 499 1041 328T813 67T497 -22ZM622 689Q694 689 763 723T881 813T939 935Q956 1043 932 1124T850 1250T707 1296Q629 1296 563 1257T453 1147T395 984Q376 847 435 768T622 689Z" />
<glyph unicode=":" horiz-adv-x="474" d="M142 741L180 997H421L384 741H142ZM35 6L73 261H314L276 6H35Z" />
<glyph unicode=";" horiz-adv-x="499" d="M-6 -292L149 0H61L97 256H339L306 29L81 -292H-6ZM162 735L199 994H441L403 735H162Z" />
<glyph unicode="&lt;" horiz-adv-x="1075" d="M911 259L133 596L160 784L1038 1126L1011 931L387 689L939 451L911 259Z" />
<glyph unicode="=" horiz-adv-x="1095" d="M169 838L193 1000L1041 1001L1017 839L169 838ZM104 390L128 553L976 554L952 391L104 390Z" />
<glyph unicode="&gt;" horiz-adv-x="1075" d="M86 259L116 451L737 689L183 931L212 1126L991 784L963 596L86 259Z" />
<glyph unicode="?" horiz-adv-x="1008" d="M365 394Q381 507 427 589T533 737T652 859T753 976T807 1111Q821 1203 766 1256T613 1309Q554 1309 495 1284T386 1214T306 1114L130 1166Q212 1309 345 1387T638 1466Q769 1466 860 1421T993 1298T1021 1121Q1006 1020
958 947T845 814T715 695T602 564T539 394H365ZM274 0L312 255H553L515 0H274Z" />
<glyph unicode="@" horiz-adv-x="1593" d="M703 -220Q533 -220 408 -163T204 -6T95 226T87 509Q111 667 184 807T373 1056T636 1226T955 1288Q1078 1288 1190 1252T1386 1140T1509 946T1525 662Q1503 513 1440 400T1285 222T1089 158Q1013 158 977 185T931 258Q928
270 924 270T909 259Q860 204 792 167T636 130Q563 130 508 172T427 292T418 475Q436 597 496 700T648 864T848 926Q926 926 971 894T1041 811Q1044 807 1048 808T1056 818L1078 876H1209L1076 436Q1052 355 1066 325T1122 294Q1176 294 1229 335T1323 456T1380
650Q1401 790 1371 886T1274 1042T1118 1129T933 1156Q783 1156 662 1105T451 964T307 757T232 509Q213 378 237 268T326 76T498 -49T749 -93Q835 -93 897 -76T1011 -31T1116 31L1172 -69Q1084 -135 964 -177T703 -220ZM694 274Q752 274 805 310T899 405T957 533Q978
613 967 668T921 753T838 783Q776 783 722 743T631 637T580 488Q567 394 595 334T694 274Z" />
<glyph unicode="A" horiz-adv-x="1378" d="M5 0L712 1446H942L1228 0H1016L944 379H402L217 0H5ZM481 573H919L798 1236L481 573Z" />
<glyph unicode="B" horiz-adv-x="1304" d="M110 0L320 1446H781Q1038 1446 1154 1348T1244 1066Q1227 954 1161 873T946 738Q1026 718 1075 683T1150 602T1181 501T1178 387Q1149 191 1005 96T590 0H110ZM347 174H614Q771 174 862 232T969 406Q981 489 949 541T852
618T703 643H414L347 174ZM439 820H726Q776 820 827 831T922 868T997 937T1037 1043Q1054 1161 979 1217T770 1273H505L439 820Z" />
<glyph unicode="C" horiz-adv-x="1354" d="M633 -20Q455 -20 338 61T168 295T133 664Q147 838 198 984T339 1239T553 1406T840 1466Q988 1466 1093 1404T1255 1235T1309 991H1087Q1084 1073 1052 1139T960 1244T807 1283Q703 1283 625 1236T492 1104T407 904T362
656Q338 403 413 283T654 163Q746 163 817 204T939 315T1015 467H1238Q1213 372 1164 285T1041 128T866 20T633 -20Z" />
<glyph unicode="D" horiz-adv-x="1363" d="M112 0L317 1446Q325 1446 386 1446T524 1445Q661 1444 779 1430T993 1379T1155 1280T1259 1121T1295 890Q1295 790 1279 686T1226 482T1126 295T970 142T749 38T452 0H112ZM352 180H470Q627 180 741 233T930 382T1040
605T1076 882Q1076 1024 1025 1108T878 1229T643 1266H509L352 180Z" />
<glyph unicode="E" horiz-adv-x="1217" d="M110 0L321 1446H1215L1186 1260H504L441 821H1048L1021 638H413L348 189L1048 188L1019 0H110Z" />
<glyph unicode="F" horiz-adv-x="1166" d="M111 0L321 1446H1205L1177 1262H507L444 815H1038L1011 633H417L325 0H111Z" />
<glyph unicode="G" horiz-adv-x="1434" d="M627 -20Q442 -20 321 68T151 321T136 719Q171 953 270 1120T518 1377T854 1466Q1001 1466 1109 1399T1273 1223T1317 991H1095Q1093 1068 1060 1133T966 1239T821 1279Q710 1279 617 1221T458 1041T363 724Q342 573
356 467T414 296T523 202T669 172Q747 172 810 201T921 276T997 375T1037 479L1062 596H742L765 750L1304 748L1195 0H1043L1073 212Q1028 153 966 100T821 14T627 -20Z" />
<glyph unicode="H" horiz-adv-x="1489" d="M110 0L314 1446H525L439 840H1141L1226 1446H1437L1233 0H1023L1115 654H413L321 0H110Z" />
<glyph unicode="I" horiz-adv-x="584" d="M111 0L320 1446H531L322 0H111Z" />
<glyph unicode="J" horiz-adv-x="770" d="M230 -20Q160 -20 96 -4T8 21L48 223Q76 213 111 199T200 184Q294 184 336 238T396 417L546 1446H755L597 358Q579 236 541 152T428 24T230 -20Z" />
<glyph unicode="K" horiz-adv-x="1340" d="M110 0L321 1446H539L435 721L1119 1446H1364L839 884L1199 0H965L661 725L393 444L329 0H110Z" />
<glyph unicode="L" horiz-adv-x="1120" d="M110 0L321 1446H534L352 188H985L957 0H110Z" />
<glyph unicode="M" horiz-adv-x="1734" d="M111 0L320 1446H618L834 296L1387 1446H1681L1472 0H1258L1425 1152L881 0H699L490 1143L324 0H111Z" />
<glyph unicode="N" horiz-adv-x="1483" d="M110 0L321 1446H525L1065 368L1220 1446H1431L1219 0H1032L480 1101L321 0H110Z" />
<glyph unicode="O" horiz-adv-x="1432" d="M639 -20Q449 -20 325 67T152 319T136 718Q170 954 269 1121T519 1377T855 1466Q1041 1466 1164 1378T1337 1123T1353 720Q1319 486 1221 321T975 68T639 -20ZM667 163Q785 163 877 221T1032 401T1123 717Q1152 913 1125
1038T1022 1223T828 1283Q651 1283 530 1147T366 717Q338 525 366 403T471 222T667 163Z" />
<glyph unicode="P" horiz-adv-x="1243" d="M111 0L321 1446H800Q949 1446 1057 1393T1219 1237T1250 984Q1228 840 1152 739T959 584T695 530H402L325 0H111ZM426 705H716Q802 705 873 741T991 842T1051 996Q1069 1130 995 1201T790 1273H508L426 705Z" />
<glyph unicode="Q" horiz-adv-x="1460" d="M1204 -243Q1129 -243 1055 -226T916 -158T802 -3Q753 -11 715 -15T638 -20Q452 -20 328 66T153 317T137 720Q171 957 270 1123T518 1378T855 1466Q1041 1466 1164 1378T1338 1124T1354 720Q1323 503 1239 346T1007 90Q1027
15 1088 -23T1231 -65L1204 -243ZM666 163Q846 163 964 295T1124 718Q1153 911 1127 1036T1024 1222T827 1283Q646 1283 528 1145T366 716Q325 427 405 295T666 163Z" />
<glyph unicode="R" horiz-adv-x="1321" d="M110 0L320 1446H869Q1023 1446 1117 1397T1248 1256T1267 1041Q1250 924 1201 846T1086 719T950 642L1122 0H903L748 605H408L320 0H110ZM433 778H719Q812 778 883 807T997 892T1052 1031Q1069 1151 1007 1213T825 1275H505L433
778Z" />
<glyph unicode="S" horiz-adv-x="1329" d="M598 -20Q498 -20 407 5T245 82T135 210T97 392H319Q324 314 364 261T471 181T622 154Q713 154 789 180T915 256T974 376Q983 439 960 483T887 556T765 603L512 665Q360 699 284 791T228 1037Q245 1165 325 1261T528
1410T798 1464Q959 1464 1066 1403T1224 1244T1265 1040H1047Q1051 1132 1016 1186T917 1263T774 1287Q697 1287 628 1261T513 1183T456 1059Q446 985 487 939T652 860L899 799Q1008 775 1070 729T1161 623T1194 501T1191 379Q1176 267 1099 177T893 33T598 -20Z"
/>
<glyph unicode="T" horiz-adv-x="1155" d="M403 0L583 1251H149L178 1446H1238L1211 1251H794L612 0H403Z" />
<glyph unicode="U" horiz-adv-x="1371" d="M624 -20Q437 -20 332 44T193 231T185 531L317 1446H533L397 504Q380 390 405 315T493 203T651 165Q794 165 888 248T1008 504L1143 1446H1355L1221 514Q1196 345 1126 226T932 43T624 -20Z" />
<glyph unicode="V" horiz-adv-x="1298" d="M443 0L176 1446H379L603 246L1179 1446H1383L688 0H443Z" />
<glyph unicode="W" horiz-adv-x="1834" d="M366 0L177 1446H387L517 348L967 1446H1125L1262 348L1712 1446H1919L1305 0H1123L991 1073L544 0H366Z" />
<glyph unicode="X" horiz-adv-x="1347" d="M5 0L576 737L233 1446H495L737 920L1131 1446H1359L826 761L1196 0H933L666 572L237 0H5Z" />
<glyph unicode="Y" horiz-adv-x="1198" d="M416 0L503 614L154 1446H381L638 803L1076 1446H1306L714 613L624 0H416Z" />
<glyph unicode="Z" horiz-adv-x="1254" d="M49 0L67 113L968 1262H269L297 1446H1293L1277 1338L365 186H1105L1076 0H49Z" />
<glyph unicode="[" horiz-adv-x="618" d="M54 -322L310 1446H691L672 1315H469L250 -190H453L433 -322H54Z" />
<glyph unicode="\" horiz-adv-x="682" d="M414 -66L157 1446H311L570 -66H414Z" />
<glyph unicode="]" horiz-adv-x="618" d="M-60 -322L-41 -190H162L380 1315H178L197 1446H576L321 -322H-60Z" />
<glyph unicode="^" horiz-adv-x="917" d="M628 253L496 818L200 255H47L440 982Q464 1027 497 1043T560 1046T602 983L783 253H628Z" />
<glyph unicode="_" horiz-adv-x="1022" d="M14 -248L39 -85L812 -84L787 -247L14 -248Z" />
<glyph unicode="`" horiz-adv-x="532" d="M456 1155L186 1446H415L612 1155H456Z" />
<glyph unicode="a" horiz-adv-x="1078" d="M349 -20Q253 -20 184 16T83 120T64 284Q89 456 218 541T604 631L762 636L774 711Q787 804 738 853T596 901Q520 901 451 861T350 738H170Q189 832 251 903T411 1014T629 1054Q763 1054 845 1013T959 898T977 723L872
0H695L704 184Q631 66 542 23T349 -20ZM436 129Q481 129 528 146T616 194T685 263T719 341L743 512L613 509Q514 508 441 487T324 422T269 305Q258 222 305 176T436 129Z" />
<glyph unicode="b" horiz-adv-x="1169" d="M588 -20Q506 -20 451 3T363 62T313 138T290 212L238 0H81L281 1486H493L412 877Q430 904 460 935T534 993T631 1037T751 1054Q936 1054 1026 918T1081 522Q1048 277 923 129T588 -20ZM569 141Q680 141 763 233T873 529Q896
705 843 798T666 891Q533 891 461 798T364 529Q337 322 385 232T569 141Z" />
<glyph unicode="c" horiz-adv-x="1052" d="M472 -20Q337 -20 242 41T105 222T88 513Q111 674 183 796T369 986T628 1054Q740 1054 820 1009T941 882T979 693H797Q797 744 776 788T712 858T605 885Q487 885 401 794T286 515Q262 343 316 241T500 139Q565 139 615
167T699 239T747 330H925Q899 226 834 147T676 24T472 -20Z" />
<glyph unicode="d" horiz-adv-x="1166" d="M435 -20Q240 -20 147 119T89 522Q121 764 242 909T562 1054Q627 1054 677 1037T762 993T821 935T854 877L936 1486H1149L948 0H791L796 212Q781 178 754 138T683 62T579 3T435 -20ZM498 141Q634 141 706 231T808 529Q822
646 807 727T741 849T602 891Q490 891 407 806T299 529Q274 341 325 241T498 141Z" />
<glyph unicode="e" horiz-adv-x="1099" d="M493 -20Q352 -20 255 43T115 225T96 506Q119 667 191 790T377 984T636 1054Q780 1054 869 990T992 811T1003 538L993 467H300Q286 374 304 301T375 185T514 142Q601 142 670 184T772 309H966Q933 203 859 129T688 18T493
-20ZM319 606H814Q826 687 809 753T744 858T612 897Q529 897 467 854T368 744T319 606Z" />
<glyph unicode="f" horiz-adv-x="766" d="M191 0L318 880H117L141 1034H340L363 1191Q381 1315 453 1380T649 1446H847L826 1298H686Q627 1298 601 1266T564 1166L546 1034H779L756 880H527L399 0H191Z" />
<glyph unicode="g" horiz-adv-x="1200" d="M464 -342Q217 -342 92 -269T-16 -65Q-8 -12 21 25T89 86T158 124T201 146Q188 155 165 171T124 215T112 288Q119 335 168 375T316 436Q234 482 194 562T167 733Q180 828 240 899T403 1010T646 1050Q747 1050 809 1026T920
962Q941 971 978 985T1058 1017T1140 1051T1205 1077L1182 889L1003 851Q1024 784 1015 715Q1003 627 947 554T793 437T554 393Q538 393 516 394T483 395Q392 395 356 379T317 340Q317 311 356 298T484 278Q522 275 576 273T694 265Q860 254 938 177T999 -28Q980
-167 847 -254T464 -342ZM502 -211Q635 -211 708 -169T793 -44Q800 10 764 44T643 84L384 102Q345 104 303 84T230 27T193 -56Q183 -130 258 -170T502 -211ZM563 524Q664 524 733 577T816 729Q829 824 779 874T632 925Q531 925 460 868T375 710Q363 622 412 573T563
524Z" />
<glyph unicode="h" horiz-adv-x="1140" d="M81 0L288 1486H496L413 891Q458 953 537 999T734 1045Q830 1045 903 1006T1012 897T1036 734L934 0H723L820 697Q832 780 782 827T643 874Q582 874 527 853T434 790T387 686L291 0H81Z" />
<glyph unicode="i" horiz-adv-x="502" d="M77 0L223 1034H425L280 0H77ZM247 1235L276 1446H487L458 1235H247Z" />
<glyph unicode="j" horiz-adv-x="532" d="M-38 -332Q-117 -332 -138 -320T-159 -307L-138 -164L-46 -158Q19 -152 48 -122T87 -26L242 1034H451L296 -32Q274 -183 198 -257T-38 -332ZM269 1252L300 1463H519L488 1252H269Z" />
<glyph unicode="k" horiz-adv-x="1097" d="M72 0L288 1486H498L362 541L863 1034H1097L682 635L965 0H749L528 499L326 306L282 0H72Z" />
<glyph unicode="l" horiz-adv-x="608" d="M340 -14Q251 -14 201 10T129 74T105 166T110 273L287 1486H495L321 295Q311 223 332 185T410 142L460 140L441 4Q414 -4 388 -9T340 -14Z" />
<glyph unicode="m" horiz-adv-x="1685" d="M73 0L223 1034H426L406 893Q457 959 536 1006T730 1054Q810 1054 885 1016T988 894Q1048 969 1135 1011T1313 1054Q1366 1054 1419 1037T1515 979T1577 869T1581 695L1480 0H1270L1369 675Q1381 759 1361 805T1302 871T1214
891Q1159 891 1109 870T1024 802T977 676L879 0H671L775 721Q784 777 761 814T697 871T615 891Q569 891 519 872T432 811T385 703L281 0H73Z" />
<glyph unicode="n" horiz-adv-x="1129" d="M73 0L224 1034H427L408 893Q442 935 487 970T592 1026T731 1047Q825 1047 897 1005T1004 881T1023 682L923 0H713L809 660Q825 763 777 818T642 874Q582 874 526 853T430 791T383 688L282 0H73Z" />
<glyph unicode="o" horiz-adv-x="1097" d="M474 -20Q335 -20 240 42T105 224T88 512Q110 675 181 797T366 986T625 1054Q765 1054 859 991T992 806T1008 512Q986 355 916 235T735 48T474 -20ZM500 145Q583 145 645 191T747 322T802 518Q816 621 803 705T741 840T601
890Q516 890 453 845T351 716T296 518Q282 417 295 332T358 196T500 145Z" />
<glyph unicode="p" horiz-adv-x="1164" d="M35 -322L218 1034H428L408 862Q439 906 488 950T603 1024T753 1054Q869 1054 950 998T1067 825T1078 529Q1054 349 987 227T818 43T590 -20Q530 -20 484 -2T405 45T349 109T314 178L247 -322H35ZM568 143Q680 143 765
235T876 525Q898 694 844 792T667 891Q539 891 460 789T360 525Q346 420 363 334T431 195T568 143Z" />
<glyph unicode="q" horiz-adv-x="1165" d="M691 -322L758 178Q729 133 683 88T573 11T430 -20Q313 -20 227 37T103 215T90 529Q112 697 175 814T334 993T556 1054Q618 1054 666 1037T751 992T811 930T850 862L875 1034H1085L902 -322H691ZM496 143Q583 143 647
195T752 333T806 525Q828 686 777 788T596 891Q485 891 400 800T290 525Q266 344 320 244T496 143Z" />
<glyph unicode="r" horiz-adv-x="768" d="M72 0L218 1034H420L390 822Q425 898 477 949T592 1027T723 1054Q742 1054 759 1052T786 1043L757 837Q746 843 727 845T695 848Q607 854 538 832T426 757T371 622L284 0H72Z" />
<glyph unicode="s" horiz-adv-x="994" d="M438 -20Q334 -20 248 14T111 121T60 308H248Q252 249 281 211T357 154T459 135Q552 135 614 170T687 280Q695 333 668 365T576 412L388 461Q268 491 203 556T154 740Q167 831 220 902T366 1013T588 1054Q756 1054 848
976T923 750H741Q741 821 695 861T565 902Q477 902 417 866T346 754Q339 703 375 674T491 625L671 576Q741 556 784 524T848 452T875 371T874 292Q861 194 804 125T653 18T438 -20Z" />
<glyph unicode="t" horiz-adv-x="773" d="M450 -7Q338 -7 282 24T209 113T205 255L295 880H135L158 1034H323L404 1338H572L529 1035H751L728 880H506L418 268Q407 193 430 173T512 152H627L607 13Q587 5 549 -1T450 -7Z" />
<glyph unicode="u" horiz-adv-x="1137" d="M434 -20Q360 -19 295 3T183 69T114 178T104 329L202 1034H414L318 352Q305 259 351 201T508 143Q609 143 677 198T760 361L855 1034H1065L919 0H756L761 200Q732 119 680 71T564 1T434 -20Z" />
<glyph unicode="v" horiz-adv-x="978" d="M325 0L115 1034H309L444 271H458L815 1034H1009L498 0H325Z" />
<glyph unicode="w" horiz-adv-x="1497" d="M278 0L119 1034H310L414 281H427L745 1034H899L1006 283H1019L1333 1034H1524L1067 0H879L773 726L464 0H278Z" />
<glyph unicode="x" horiz-adv-x="1098" d="M-18 0L439 538L164 1034H387L578 691L865 1034H1090L669 538L970 0H746L531 387L207 0H-18Z" />
<glyph unicode="y" horiz-adv-x="1042" d="M131 -330Q40 -330 7 -316T-27 -302L-7 -164L94 -166Q171 -170 214 -152T278 -107T312 -57L353 30L115 1034H325L487 270L869 1034H1074L507 -58Q449 -166 389 -225T266 -307T131 -330Z" />
<glyph unicode="z" horiz-adv-x="941" d="M2 0L18 128L660 879H161L183 1034H936L920 906L278 155H817L795 0H2Z" />
<glyph unicode="{" horiz-adv-x="667" d="M376 -322Q302 -322 246 -296T162 -222T143 -104L206 321Q213 368 196 410T135 480T17 507L36 628Q149 629 207 682T279 822L338 1233Q348 1301 390 1348T496 1421T631 1446H740L720 1315H647Q597 1315 570 1303T531 1267T514
1212L454 794Q442 721 407 674T324 603T230 574Q219 573 218 568T228 561Q273 557 313 536T376 466T387 337L327 -84Q319 -139 340 -164T430 -190H502L482 -322H376Z" />
<glyph unicode="|" horiz-adv-x="534" d="M66 -322L351 1652H511L224 -322H66Z" />
<glyph unicode="}" horiz-adv-x="673" d="M-82 -322L-62 -190H12Q62 -190 89 -178T128 -143T144 -88L205 330Q217 403 252 450T334 521T429 550Q440 552 441 557T431 563Q386 567 345 588T283 658T271 787L332 1208Q340 1264 319 1289T228 1315H156L176 1446H282Q356
1446 412 1421T497 1346T515 1228L452 803Q446 756 463 714T523 645T641 618L622 496Q510 495 452 443T380 302L320 -109Q310 -177 268 -224T162 -297T28 -322H-82Z" />
<glyph unicode="~" horiz-adv-x="1121" d="M186 591L142 708Q210 769 279 812T437 856Q492 856 534 839T613 801T687 763T773 746Q843 746 895 782T985 866L1029 749Q982 683 910 643T754 603Q697 603 655 619T576 658T502 696T415 713Q343 713 288 675T186 591Z" />
<glyph unicode="&#xa0;" horiz-adv-x="476" />
<glyph unicode="&#xa1;" horiz-adv-x="518" d="M16 -322L203 643H339L266 -322H16ZM168 779L203 1034H444L409 779H168Z" />
<glyph unicode="&#xa2;" horiz-adv-x="1092" d="M534 202Q394 202 295 263T153 444T134 735Q159 896 234 1018T427 1208T695 1276Q813 1276 896 1231T1021 1104T1060 915H867Q867 966 846 1010T781 1080T670 1107Q550 1107 462 1016T345 737Q320 565 376 463T564
361Q630 361 681 389T767 461T816 552H1004Q978 448 911 369T746 246T534 202ZM413 0L458 300H604L560 0H413ZM605 1146L649 1446H795L751 1146H605Z" />
<glyph unicode="&#xa3;" horiz-adv-x="1198" d="M-39 0L-13 182H57Q129 182 186 242T263 437Q271 487 274 543T277 685H83L103 815H272V984Q268 1099 306 1188T413 1339T567 1433T743 1466Q838 1466 914 1434T1042 1346T1114 1215L921 1152Q899 1221 860 1254T746
1288Q660 1288 595 1234T514 1080Q507 1027 507 959T517 816H814L795 686H514Q512 616 507 566T488 462Q473 384 448 331T393 243T337 184H644Q739 184 798 220T902 346L1075 301Q1008 151 897 76T630 0H-39Z" />
<glyph unicode="&#xa4;" horiz-adv-x="1067" d="M155 278L76 381L211 502Q185 553 177 607T178 727Q187 786 209 838T266 936Q273 946 273 952T267 965L179 1076L289 1177L389 1051Q440 1085 498 1103T613 1122Q726 1122 808 1059Q821 1051 832 1061L951 1170L1031
1069L901 951Q925 902 934 846T935 728Q927 671 904 616T843 516Q836 503 841 496L933 388L822 287L727 405Q674 371 618 352T501 332Q389 332 306 393Q292 405 279 390L155 278ZM524 486Q589 486 645 519T740 608T788 728Q797 792 776 847T707 936T594 970Q528
970 471 936T376 847T329 728Q319 663 341 608T410 520T524 486Z" />
<glyph unicode="&#xa5;" horiz-adv-x="1196" d="M406 0L493 604L135 1446H407L661 807L1101 1446H1323L737 638L644 0H406ZM154 255L173 382L988 383L969 256L154 255ZM197 553L216 681L1033 683L1014 554L197 553Z" />
<glyph unicode="&#xa6;" horiz-adv-x="534" d="M235 847L351 1652H511L394 847H235ZM66 -322L182 484H340L224 -322H66Z" />
<glyph unicode="&#xa7;" horiz-adv-x="957" d="M394 -147Q295 -147 216 -117T83 -34T7 85L152 156Q185 90 248 43T413 -5Q499 -5 559 29T629 129Q636 176 607 217T482 301L333 364Q203 420 152 491T114 664Q128 757 188 823T333 925Q239 985 214 1047T197 1178Q210
1260 264 1325T406 1428T606 1466Q696 1466 766 1437T884 1360T954 1258L809 1186Q773 1242 722 1283T593 1324Q507 1324 454 1290T392 1197Q387 1156 413 1120T505 1053L651 989Q794 926 850 850T890 664Q877 567 821 507T689 407Q768 356 802 296T825 153Q811
66 756 -1T608 -108T394 -147ZM533 485Q576 481 614 501T678 556T708 635Q713 690 687 731T576 810L485 850Q435 846 395 824T328 766T295 693Q288 643 314 609T433 532L533 485Z" />
<glyph unicode="&#xa8;" horiz-adv-x="593" d="M476 1251L505 1446H711L682 1251H476ZM111 1251L140 1446H346L317 1251H111Z" />
<glyph unicode="&#xa9;" horiz-adv-x="1570" d="M702 -20Q555 -20 435 37T233 197T115 434T102 724Q124 877 198 1011T385 1248T634 1408T917 1466Q1064 1466 1183 1408T1385 1248T1504 1012T1517 724Q1494 569 1420 434T1233 197T984 38T702 -20ZM755 312Q646
312 571 364T461 509T445 726Q463 850 524 944T677 1092T876 1145Q960 1145 1017 1111T1110 1024T1162 912L1007 883Q995 922 977 953T931 1002T863 1020Q804 1020 755 986T670 887T622 730Q602 589 648 513T786 437Q857 437 910 478T1005 585L1112 548Q1089 508
1056 467T977 390T876 334T755 312ZM722 115Q841 115 950 158T1148 280T1297 472T1377 724Q1397 862 1370 974T1277 1166T1114 1290T898 1334Q777 1334 668 1291T470 1167T322 974T243 724Q215 538 270 402T442 190T722 115Z" />
<glyph unicode="&#xaa;" horiz-adv-x="768" d="M333 793Q239 793 194 842T161 974Q175 1070 262 1127T493 1193L589 1201L594 1247Q604 1311 573 1336T488 1362Q444 1362 406 1343T333 1270L220 1302Q266 1380 334 1421T509 1463Q638 1462 687 1405T723 1249Q711
1168 704 1113T690 1010Q688 996 685 972T680 921T678 873L679 805H546L542 885Q488 838 440 816T333 793ZM393 891Q459 891 511 936Q532 954 545 971T561 1010L575 1114L498 1108Q406 1102 355 1069T296 982Q290 941 316 916T393 891Z" />
<glyph unicode="&#xab;" horiz-adv-x="903" d="M617 137L428 502L726 883H842L607 502L732 137H617ZM272 137L84 502L380 883H498L263 502L387 137H272Z" />
<glyph unicode="&#xac;" horiz-adv-x="1092" d="M139 645L164 808L1012 809L987 646L139 645ZM772 355L829 757H1004L945 355H772Z" />
<glyph unicode="&#xad;" horiz-adv-x="741" d="M111 433L134 597L629 598L606 435L111 433Z" />
<glyph unicode="&#xae;" horiz-adv-x="1040" d="M517 536Q394 536 303 598T167 765T141 1000Q160 1129 234 1235T419 1403T653 1466Q774 1466 865 1404T1000 1235T1026 1000Q1007 871 933 766T749 598T517 536ZM532 635Q633 635 716 680T853 807T924 1000Q940
1111 909 1193T809 1321T638 1367Q535 1367 452 1322T314 1194T244 1000Q220 833 298 734T532 635ZM377 767L445 1228H646Q720 1228 757 1198T785 1109Q778 1058 746 1029T676 985L731 767H631L590 976H499L469 767H377ZM509 1048H611Q640 1048 662 1060T690 1102Q693
1126 678 1141T622 1157H525L509 1048Z" />
<glyph unicode="&#xaf;" horiz-adv-x="669" d="M133 1227L154 1373H757L735 1227H133Z" />
<glyph unicode="&#xb0;" horiz-adv-x="903" d="M517 1033Q429 1033 367 1073T275 1186T260 1352Q273 1445 323 1518T448 1632T612 1673Q699 1673 761 1632T853 1518T869 1352Q855 1259 805 1187T680 1074T517 1033ZM535 1162Q612 1162 665 1214T730 1350Q743 1433
705 1485T587 1537Q510 1537 457 1485T391 1350Q381 1267 419 1215T535 1162Z" />
<glyph unicode="&#xb1;" horiz-adv-x="1096" d="M460 443L588 1328H747L617 443H460ZM64 104L88 266L935 267L912 105L64 104ZM166 803L190 965L1038 967L1014 804L166 803Z" />
<glyph unicode="&#xb2;" horiz-adv-x="718" d="M68 768L79 845L85 884Q97 966 137 1022T236 1118T357 1190T478 1254T574 1328T621 1427Q630 1492 592 1533T480 1574Q401 1574 345 1527T268 1396H139Q158 1518 250 1604T501 1690Q638 1690 707 1618T760 1427Q749
1346 709 1291T611 1197T492 1129T375 1068T281 998T234 900L233 885H687L670 768H68Z" />
<glyph unicode="&#xb3;" horiz-adv-x="783" d="M384 754Q242 755 168 830T108 1035H238Q240 953 284 911T404 868Q495 868 555 911T625 1023Q635 1099 583 1140T445 1183L364 1185L381 1296L456 1299Q510 1300 554 1320T628 1374T663 1448Q670 1503 628 1542T504
1581Q459 1581 416 1563T342 1508T299 1408H170Q183 1499 233 1562T359 1657T521 1690Q614 1690 681 1663T782 1584T805 1453Q795 1385 748 1332T612 1248Q665 1232 702 1202T758 1126T767 1021Q755 936 701 876T565 785T384 754Z" />
<glyph unicode="&#xb4;" horiz-adv-x="450" d="M100 1155L336 1446H570L262 1155H100Z" />
<glyph unicode="&#xb5;" horiz-adv-x="1150" d="M10 -330L213 1060H428L325 355Q319 308 338 270T395 209T485 186Q558 186 628 231T762 351L863 1060H1081L923 0H715L738 164Q655 95 594 62T468 23Q415 19 369 29T284 71L226 -330H10Z" />
<glyph unicode="&#xb6;" horiz-adv-x="1102" d="M383 -166L493 596Q377 601 296 655T177 801T157 1012Q174 1125 237 1224T407 1385T658 1446H1103L1085 1318H968L753 -166H618L834 1318H734L517 -166H383Z" />
<glyph unicode="&#xb7;" horiz-adv-x="469" d="M120 609L156 848H395L359 609H120Z" />
<glyph unicode="&#xb8;" horiz-adv-x="468" d="M87 -415Q33 -415 -14 -403T-99 -364L-54 -281Q-31 -300 0 -314T74 -329Q124 -329 151 -311T184 -259Q191 -216 158 -195T42 -172Q31 -172 28 -169T32 -157L125 10H228L167 -110Q233 -112 268 -135T315 -191T323
-259Q315 -309 281 -344T195 -397T87 -415Z" />
<glyph unicode="&#xb9;" horiz-adv-x="473" d="M210 760L313 1472H150L161 1556Q277 1556 325 1585T386 1670H477L344 760H210Z" />
<glyph unicode="&#xba;" horiz-adv-x="760" d="M418 795Q282 795 218 888T174 1127Q189 1228 236 1304T355 1422T514 1465Q647 1465 713 1371T758 1127Q745 1030 699 955T581 838T418 795ZM433 899Q509 899 556 960T618 1132Q633 1240 604 1300T499 1360Q424 1360
378 1300T315 1132Q299 1021 329 960T433 899Z" />
<glyph unicode="&#xbb;" horiz-adv-x="901" d="M404 137L636 502L510 883H627L813 502L519 137H404ZM60 137L290 502L167 883H282L468 502L173 137H60Z" />
<glyph unicode="&#xbc;" horiz-adv-x="1515" d="M210 552L313 1264H150L161 1348Q277 1348 325 1377T386 1462H477L344 552H210ZM256 -8L125 -6L1268 1462H1398L256 -8ZM1127 0L1160 224H754L772 343L1254 910H1387L1305 341H1445L1428 224H1287L1255 0H1127ZM897
341H1175L1232 738L897 341Z" />
<glyph unicode="&#xbd;" horiz-adv-x="1663" d="M210 552L313 1264H150L161 1348Q277 1348 325 1377T386 1462H477L344 552H210ZM256 -8L125 -6L1268 1462H1398L256 -8ZM936 0L947 77L953 116Q964 198 1005 254T1104 350T1225 422T1345 486T1441 560T1488 659Q1497
724 1460 765T1348 806Q1269 806 1213 759T1136 628H1006Q1025 750 1117 836T1369 922Q1505 922 1575 850T1628 659Q1616 578 1576 523T1479 429T1360 361T1243 300T1149 230T1102 132L1100 117H1555L1538 0H936Z" />
<glyph unicode="&#xbe;" horiz-adv-x="1755" d="M384 544Q242 545 168 620T108 825H238Q240 743 284 701T404 658Q495 658 555 701T625 813Q635 889 583 930T445 973L364 975L381 1086L456 1089Q510 1090 554 1110T628 1164T663 1238Q670 1293 628 1332T504 1371Q459
1371 416 1353T342 1298T299 1198H170Q183 1289 233 1352T359 1447T521 1480Q614 1480 681 1453T782 1374T805 1243Q795 1175 748 1122T612 1038Q665 1022 702 992T758 916T767 811Q755 726 701 666T565 575T384 544ZM496 -8L365 -6L1508 1462H1638L496 -8ZM1367
0L1400 224H994L1012 343L1494 910H1627L1545 341H1685L1668 224H1527L1495 0H1367ZM1137 341H1415L1472 738L1137 341Z" />
<glyph unicode="&#xbf;" horiz-adv-x="1015" d="M381 -342Q241 -342 150 -297T19 -173T-8 5Q6 103 53 168T162 283T287 381T396 492T456 648H632Q618 540 574 466T472 338T357 238T259 139T207 15Q196 -73 251 -126T405 -180Q463 -180 523 -155T633 -87T710 11L888
-41Q809 -183 677 -262T381 -342ZM441 779L476 1034H718L683 779H441Z" />
<glyph unicode="&#xc0;" horiz-adv-x="1378" d="M5 0L712 1446H942L1228 0H1016L944 379H402L217 0H5ZM481 573H919L798 1236L481 573ZM765 1567L495 1858H724L921 1567H765Z" />
<glyph unicode="&#xc1;" horiz-adv-x="1378" d="M5 0L712 1446H942L1228 0H1016L944 379H402L217 0H5ZM481 573H919L798 1236L481 573ZM750 1567L986 1858H1220L912 1567H750Z" />
<glyph unicode="&#xc2;" horiz-adv-x="1378" d="M5 0L712 1446H942L1228 0H1016L944 379H402L217 0H5ZM481 573H919L798 1236L481 573ZM496 1567L755 1801H903L1127 1567H942L822 1700L670 1567H496Z" />
<glyph unicode="&#xc3;" horiz-adv-x="1378" d="M5 0L712 1446H942L1228 0H1016L944 379H402L217 0H5ZM481 573H919L798 1236L481 573ZM593 1627L573 1739Q612 1773 653 1796T752 1820Q801 1820 842 1806T922 1778T1005 1763Q1049 1763 1085 1781T1154 1823L1168
1694Q1139 1673 1093 1653T985 1633Q933 1633 896 1646T822 1672T741 1686Q694 1686 662 1670T593 1627Z" />
<glyph unicode="&#xc4;" horiz-adv-x="1378" d="M5 0L712 1446H942L1228 0H1016L944 379H402L217 0H5ZM481 573H919L798 1236L481 573ZM936 1663L965 1858H1171L1142 1663H936ZM571 1663L600 1858H806L777 1663H571Z" />
<glyph unicode="&#xc5;" horiz-adv-x="1378" d="M5 0L712 1446H942L1228 0H1016L944 379H402L217 0H5ZM481 573H919L798 1236L481 573ZM844 1561Q761 1561 712 1622T676 1774Q684 1830 718 1875T801 1948T906 1976Q989 1976 1038 1916T1075 1770Q1067 1711 1034
1664T950 1589T844 1561ZM858 1662Q900 1662 933 1694T973 1769Q979 1815 955 1844T888 1873Q848 1873 814 1844T772 1769Q766 1727 791 1695T858 1662Z" />
<glyph unicode="&#xc6;" horiz-adv-x="1907" d="M-73 0L890 1446H1902L1875 1263H1220L1156 820H1742L1715 639H1129L1064 184H1741L1715 0H798L854 384H391L139 0H-73ZM501 573H881L986 1297L501 573Z" />
<glyph unicode="&#xc7;" horiz-adv-x="1354" d="M553 -415Q499 -415 452 -403T367 -364L412 -281Q435 -300 466 -314T540 -329Q590 -329 617 -311T650 -259Q657 -216 624 -195T508 -172Q497 -172 494 -169T497 -157L591 10H694L632 -110Q699 -112 734 -135T781
-191T789 -259Q781 -309 747 -344T661 -397T553 -415ZM633 -20Q455 -20 338 61T168 295T133 664Q147 838 198 984T339 1239T553 1406T840 1466Q988 1466 1093 1404T1255 1235T1309 991H1087Q1084 1073 1052 1139T960 1244T807 1283Q703 1283 625 1236T492 1104T407
904T362 656Q338 403 413 283T654 163Q746 163 817 204T939 315T1015 467H1238Q1213 372 1164 285T1041 128T866 20T633 -20Z" />
<glyph unicode="&#xc8;" horiz-adv-x="1217" d="M110 0L321 1446H1215L1186 1260H504L441 821H1048L1021 638H413L348 189L1048 188L1019 0H110ZM686 1567L416 1858H645L842 1567H686Z" />
<glyph unicode="&#xc9;" horiz-adv-x="1217" d="M110 0L321 1446H1215L1186 1260H504L441 821H1048L1021 638H413L348 189L1048 188L1019 0H110ZM670 1567L906 1858H1140L832 1567H670Z" />
<glyph unicode="&#xca;" horiz-adv-x="1217" d="M110 0L321 1446H1215L1186 1260H504L441 821H1048L1021 638H413L348 189L1048 188L1019 0H110ZM450 1567L709 1801H857L1081 1567H896L776 1700L624 1567H450Z" />
<glyph unicode="&#xcb;" horiz-adv-x="1217" d="M110 0L321 1446H1215L1186 1260H504L441 821H1048L1021 638H413L348 189L1048 188L1019 0H110ZM857 1663L886 1858H1092L1063 1663H857ZM492 1663L521 1858H727L698 1663H492Z" />
<glyph unicode="&#xcc;" horiz-adv-x="584" d="M111 0L320 1446H531L322 0H111ZM365 1567L95 1858H324L521 1567H365Z" />
<glyph unicode="&#xcd;" horiz-adv-x="584" d="M111 0L320 1446H531L322 0H111ZM349 1567L585 1858H819L511 1567H349Z" />
<glyph unicode="&#xce;" horiz-adv-x="584" d="M111 0L320 1446H531L322 0H111ZM129 1567L388 1801H536L760 1567H575L455 1700L303 1567H129Z" />
<glyph unicode="&#xcf;" horiz-adv-x="584" d="M111 0L320 1446H531L322 0H111ZM536 1663L565 1858H771L742 1663H536ZM171 1663L200 1858H406L377 1663H171Z" />
<glyph unicode="&#xd0;" horiz-adv-x="1444" d="M94 637L111 803H823L806 637H94ZM193 0L398 1446Q406 1446 467 1446T605 1445Q742 1444 861 1430T1074 1379T1236 1280T1340 1121T1376 890Q1376 790 1360 686T1307 482T1207 295T1051 142T830 38T533 0H193ZM434
180H552Q708 180 822 233T1011 382T1122 605T1158 882Q1158 1024 1107 1108T959 1229T725 1266H590L434 180Z" />
<glyph unicode="&#xd1;" horiz-adv-x="1483" d="M110 0L321 1446H525L1065 368L1220 1446H1431L1219 0H1032L480 1101L321 0H110ZM641 1627L621 1739Q660 1773 701 1796T800 1820Q849 1820 890 1806T970 1778T1053 1763Q1097 1763 1133 1781T1202 1823L1216 1694Q1187
1673 1141 1653T1033 1633Q981 1633 944 1646T870 1672T789 1686Q742 1686 710 1670T641 1627Z" />
<glyph unicode="&#xd2;" horiz-adv-x="1432" d="M639 -20Q449 -20 325 67T152 319T136 718Q170 954 269 1121T519 1377T855 1466Q1041 1466 1164 1378T1337 1123T1353 720Q1319 486 1221 321T975 68T639 -20ZM667 163Q785 163 877 221T1032 401T1123 717Q1152
913 1125 1038T1022 1223T828 1283Q651 1283 530 1147T366 717Q338 525 366 403T471 222T667 163ZM783 1567L513 1858H742L939 1567H783Z" />
<glyph unicode="&#xd3;" horiz-adv-x="1432" d="M639 -20Q449 -20 325 67T152 319T136 718Q170 954 269 1121T519 1377T855 1466Q1041 1466 1164 1378T1337 1123T1353 720Q1319 486 1221 321T975 68T639 -20ZM667 163Q785 163 877 221T1032 401T1123 717Q1152
913 1125 1038T1022 1223T828 1283Q651 1283 530 1147T366 717Q338 525 366 403T471 222T667 163ZM767 1567L1003 1858H1237L929 1567H767Z" />
<glyph unicode="&#xd4;" horiz-adv-x="1432" d="M639 -20Q449 -20 325 67T152 319T136 718Q170 954 269 1121T519 1377T855 1466Q1041 1466 1164 1378T1337 1123T1353 720Q1319 486 1221 321T975 68T639 -20ZM667 163Q785 163 877 221T1032 401T1123 717Q1152
913 1125 1038T1022 1223T828 1283Q651 1283 530 1147T366 717Q338 525 366 403T471 222T667 163ZM546 1567L805 1801H953L1177 1567H992L872 1700L720 1567H546Z" />
<glyph unicode="&#xd5;" horiz-adv-x="1432" d="M639 -20Q449 -20 325 67T152 319T136 718Q170 954 269 1121T519 1377T855 1466Q1041 1466 1164 1378T1337 1123T1353 720Q1319 486 1221 321T975 68T639 -20ZM667 163Q785 163 877 221T1032 401T1123 717Q1152
913 1125 1038T1022 1223T828 1283Q651 1283 530 1147T366 717Q338 525 366 403T471 222T667 163ZM610 1627L590 1739Q629 1773 670 1796T769 1820Q818 1820 859 1806T939 1778T1022 1763Q1066 1763 1102 1781T1171 1823L1185 1694Q1156 1673 1110 1653T1002 1633Q950
1633 913 1646T839 1672T758 1686Q711 1686 679 1670T610 1627Z" />
<glyph unicode="&#xd6;" horiz-adv-x="1432" d="M639 -20Q449 -20 325 67T152 319T136 718Q170 954 269 1121T519 1377T855 1466Q1041 1466 1164 1378T1337 1123T1353 720Q1319 486 1221 321T975 68T639 -20ZM667 163Q785 163 877 221T1032 401T1123 717Q1152
913 1125 1038T1022 1223T828 1283Q651 1283 530 1147T366 717Q338 525 366 403T471 222T667 163ZM954 1663L983 1858H1189L1160 1663H954ZM589 1663L618 1858H824L795 1663H589Z" />
<glyph unicode="&#xd7;" horiz-adv-x="1065" d="M201 300L108 416L921 1156L1016 1041L201 300ZM794 300L197 1039L325 1154L925 416L794 300Z" />
<glyph unicode="&#xd8;" horiz-adv-x="1457" d="M80 -27L-9 80L178 263Q142 351 133 465T144 718Q178 954 277 1121T525 1377T862 1466Q991 1466 1089 1424T1253 1298L1432 1471L1520 1366L1326 1176Q1362 1088 1371 973T1360 720Q1327 486 1229 321T982 68T646
-20Q517 -20 419 21T255 142L80 -27ZM675 160Q836 160 938 273T1083 625Q1102 721 1108 810T1106 982L423 295Q493 160 675 160ZM397 457L1082 1145Q1049 1218 988 1253T836 1288Q670 1288 565 1167T415 796Q399 703 395 618T397 457Z" />
<glyph unicode="&#xd9;" horiz-adv-x="1371" d="M624 -20Q437 -20 332 44T193 231T185 531L317 1446H533L397 504Q380 390 405 315T493 203T651 165Q794 165 888 248T1008 504L1143 1446H1355L1221 514Q1196 345 1126 226T932 43T624 -20ZM775 1567L505 1858H734L931
1567H775Z" />
<glyph unicode="&#xda;" horiz-adv-x="1371" d="M624 -20Q437 -20 332 44T193 231T185 531L317 1446H533L397 504Q380 390 405 315T493 203T651 165Q794 165 888 248T1008 504L1143 1446H1355L1221 514Q1196 345 1126 226T932 43T624 -20ZM759 1567L995 1858H1229L921
1567H759Z" />
<glyph unicode="&#xdb;" horiz-adv-x="1371" d="M624 -20Q437 -20 332 44T193 231T185 531L317 1446H533L397 504Q380 390 405 315T493 203T651 165Q794 165 888 248T1008 504L1143 1446H1355L1221 514Q1196 345 1126 226T932 43T624 -20ZM538 1567L797 1801H945L1169
1567H984L864 1700L712 1567H538Z" />
<glyph unicode="&#xdc;" horiz-adv-x="1371" d="M624 -20Q437 -20 332 44T193 231T185 531L317 1446H533L397 504Q380 390 405 315T493 203T651 165Q794 165 888 248T1008 504L1143 1446H1355L1221 514Q1196 345 1126 226T932 43T624 -20ZM946 1663L975 1858H1181L1152
1663H946ZM581 1663L610 1858H816L787 1663H581Z" />
<glyph unicode="&#xdd;" horiz-adv-x="1198" d="M416 0L503 614L154 1446H381L638 803L1076 1446H1306L714 613L624 0H416ZM643 1569L879 1860H1113L805 1569H643Z" />
<glyph unicode="&#xde;" horiz-adv-x="1279" d="M110 0L314 1446H529L488 1155H790Q943 1155 1053 1111T1218 976T1252 746Q1232 601 1153 507T951 367T679 320H370L325 0H110ZM396 503H705Q785 503 855 527T972 605T1032 746Q1044 826 1011 876T912 949T764 972H462L396
503Z" />
<glyph unicode="&#xdf;" horiz-adv-x="1124" d="M590 -20Q520 -20 456 -1T350 49L436 187Q468 164 505 146T600 127Q690 127 752 173T826 305Q835 368 811 405T743 467T643 514Q596 535 555 562T492 635T478 750Q490 825 534 874T653 970Q691 995 726 1020T786
1077T819 1156Q827 1220 790 1259T669 1299Q572 1299 502 1233T416 1044L269 0H73L214 1005Q229 1098 266 1178T364 1318T510 1412T704 1446Q822 1446 891 1408T987 1306T1003 1164Q993 1089 958 1040T867 955T738 885Q686 858 665 841T638 794Q634 764 651 751T714
720Q767 696 824 667T928 594T999 487T1010 326Q994 213 935 136T786 20T590 -20Z" />
<glyph unicode="&#xe0;" horiz-adv-x="1111" d="M354 -20Q258 -20 189 16T88 120T69 284Q94 456 223 541T609 631L767 636L779 711Q792 804 743 853T601 901Q525 901 456 861T355 738H175Q194 832 256 903T416 1014T634 1054Q768 1054 850 1013T964 898T982 723L877
0H700L709 184Q636 66 547 23T354 -20ZM441 129Q486 129 533 146T621 194T690 263T724 341L748 512L618 509Q519 508 446 487T329 422T274 305Q263 222 310 176T441 129ZM573 1155L303 1446H532L729 1155H573Z" />
<glyph unicode="&#xe1;" horiz-adv-x="1106" d="M349 -20Q253 -20 184 16T83 120T64 284Q89 456 218 541T604 631L762 636L774 711Q787 804 738 853T596 901Q520 901 451 861T350 738H170Q189 832 251 903T411 1014T629 1054Q763 1054 845 1013T959 898T977 723L872
0H695L704 184Q631 66 542 23T349 -20ZM436 129Q481 129 528 146T616 194T685 263T719 341L743 512L613 509Q514 508 441 487T324 422T269 305Q258 222 305 176T436 129ZM555 1155L791 1446H1025L717 1155H555Z" />
<glyph unicode="&#xe2;" horiz-adv-x="1106" d="M349 -20Q253 -20 184 16T83 120T64 284Q89 456 218 541T604 631L762 636L774 711Q787 804 738 853T596 901Q520 901 451 861T350 738H170Q189 832 251 903T411 1014T629 1054Q763 1054 845 1013T959 898T977 723L872
0H695L704 184Q631 66 542 23T349 -20ZM436 129Q481 129 528 146T616 194T685 263T719 341L743 512L613 509Q514 508 441 487T324 422T269 305Q258 222 305 176T436 129ZM323 1155L582 1389H730L954 1155H769L649 1288L497 1155H323Z" />
<glyph unicode="&#xe3;" horiz-adv-x="1106" d="M349 -20Q253 -20 184 16T83 120T64 284Q89 456 218 541T604 631L762 636L774 711Q787 804 738 853T596 901Q520 901 451 861T350 738H170Q189 832 251 903T411 1014T629 1054Q763 1054 845 1013T959 898T977 723L872
0H695L704 184Q631 66 542 23T349 -20ZM436 129Q481 129 528 146T616 194T685 263T719 341L743 512L613 509Q514 508 441 487T324 422T269 305Q258 222 305 176T436 129ZM388 1215L368 1327Q407 1361 448 1384T547 1408Q596 1408 637 1394T717 1366T800 1351Q844
1351 880 1369T949 1411L963 1282Q934 1261 888 1241T780 1221Q728 1221 691 1234T617 1260T536 1274Q489 1274 457 1258T388 1215Z" />
<glyph unicode="&#xe4;" horiz-adv-x="1106" d="M349 -20Q253 -20 184 16T83 120T64 284Q89 456 218 541T604 631L762 636L774 711Q787 804 738 853T596 901Q520 901 451 861T350 738H170Q189 832 251 903T411 1014T629 1054Q763 1054 845 1013T959 898T977 723L872
0H695L704 184Q631 66 542 23T349 -20ZM436 129Q481 129 528 146T616 194T685 263T719 341L743 512L613 509Q514 508 441 487T324 422T269 305Q258 222 305 176T436 129ZM727 1248L756 1443H962L933 1248H727ZM362 1248L391 1443H597L568 1248H362Z" />
<glyph unicode="&#xe5;" horiz-adv-x="1106" d="M832 1499L756 1360Q807 1339 833 1291T850 1178Q838 1091 774 1036T627 980Q545 980 498 1037T464 1182Q473 1253 524 1304T641 1368L690 1499H832ZM753 1176Q760 1221 736 1251T669 1281Q629 1281 595 1251T553
1176Q547 1134 573 1101T639 1068Q681 1068 714 1101T753 1176ZM349 -20Q253 -20 184 16T83 120T64 284Q89 456 218 541T604 631L762 636L774 711Q787 804 738 853T596 901Q520 901 451 861T350 738H170Q189 832 251 903T411 1014T629 1054Q763 1054 845 1013T959
898T977 723L872 0H695L704 184Q631 66 542 23T349 -20ZM436 129Q481 129 528 146T616 194T685 263T719 341L743 512L613 509Q514 508 441 487T324 422T269 305Q258 222 305 176T436 129Z" />
<glyph unicode="&#xe6;" horiz-adv-x="1764" d="M350 -20Q255 -20 186 16T84 120T64 284Q88 456 217 541T604 631L765 636L775 711Q788 804 740 853T597 901Q521 901 453 861T354 738H172Q191 832 253 903T411 1014T628 1054Q756 1054 838 1009T948 883Q1013 965
1103 1009T1302 1054Q1446 1054 1535 990T1658 811T1669 538L1659 467H965Q952 374 970 301T1040 185T1179 142Q1266 142 1336 184T1438 309H1631Q1598 203 1524 129T1354 18T1159 -20Q1020 -20 923 44T786 227Q755 151 691 96T540 10T350 -20ZM438 129Q515 129
577 166T679 259T727 369L747 512L615 509Q515 508 442 487T324 422T270 305Q258 222 306 176T438 129ZM985 606H1480Q1492 687 1475 753T1409 858T1278 897Q1194 897 1133 854T1033 744T985 606Z" />
<glyph unicode="&#xe7;" horiz-adv-x="1052" d="M396 -415Q342 -415 295 -403T210 -364L255 -281Q278 -300 309 -314T383 -329Q433 -329 460 -311T493 -259Q500 -216 467 -195T351 -172Q340 -172 337 -169T340 -157L434 10H537L475 -110Q542 -112 577 -135T624
-191T632 -259Q624 -309 590 -344T504 -397T396 -415ZM472 -20Q337 -20 242 41T105 222T88 513Q111 674 183 796T369 986T628 1054Q740 1054 820 1009T941 882T979 693H797Q797 744 776 788T712 858T605 885Q487 885 401 794T286 515Q262 343 316 241T500 139Q565
139 615 167T699 239T747 330H925Q899 226 834 147T676 24T472 -20Z" />
<glyph unicode="&#xe8;" horiz-adv-x="1099" d="M493 -20Q352 -20 255 43T115 225T96 506Q119 667 191 790T377 984T636 1054Q780 1054 869 990T992 811T1003 538L993 467H300Q286 374 304 301T375 185T514 142Q601 142 670 184T772 309H966Q933 203 859 129T688
18T493 -20ZM319 606H814Q826 687 809 753T744 858T612 897Q529 897 467 854T368 744T319 606ZM572 1155L302 1446H531L728 1155H572Z" />
<glyph unicode="&#xe9;" horiz-adv-x="1099" d="M493 -20Q352 -20 255 43T115 225T96 506Q119 667 191 790T377 984T636 1054Q780 1054 869 990T992 811T1003 538L993 467H300Q286 374 304 301T375 185T514 142Q601 142 670 184T772 309H966Q933 203 859 129T688
18T493 -20ZM319 606H814Q826 687 809 753T744 858T612 897Q529 897 467 854T368 744T319 606ZM556 1155L792 1446H1026L718 1155H556Z" />
<glyph unicode="&#xea;" horiz-adv-x="1099" d="M493 -20Q352 -20 255 43T115 225T96 506Q119 667 191 790T377 984T636 1054Q780 1054 869 990T992 811T1003 538L993 467H300Q286 374 304 301T375 185T514 142Q601 142 670 184T772 309H966Q933 203 859 129T688
18T493 -20ZM319 606H814Q826 687 809 753T744 858T612 897Q529 897 467 854T368 744T319 606ZM336 1155L595 1389H743L967 1155H782L662 1288L510 1155H336Z" />
<glyph unicode="&#xeb;" horiz-adv-x="1099" d="M493 -20Q352 -20 255 43T115 225T96 506Q119 667 191 790T377 984T636 1054Q780 1054 869 990T992 811T1003 538L993 467H300Q286 374 304 301T375 185T514 142Q601 142 670 184T772 309H966Q933 203 859 129T688
18T493 -20ZM319 606H814Q826 687 809 753T744 858T612 897Q529 897 467 854T368 744T319 606ZM743 1251L772 1446H978L949 1251H743ZM378 1251L407 1446H613L584 1251H378Z" />
<glyph unicode="&#xec;" horiz-adv-x="506" d="M73 0L223 1034H434L283 0H73ZM518 1155L334 1446H549L671 1156L518 1155Z" />
<glyph unicode="&#xed;" horiz-adv-x="506" d="M73 0L223 1034H434L283 0H73ZM422 1155L262 1156L437 1446H662L422 1155Z" />
<glyph unicode="&#xee;" horiz-adv-x="506" d="M73 0L223 1034H434L283 0H73ZM288 1155L547 1389H695L919 1155H734L614 1288L462 1155H288Z" />
<glyph unicode="&#xef;" horiz-adv-x="506" d="M73 0L223 1034H434L283 0H73ZM695 1251L724 1446H930L901 1251H695ZM330 1251L359 1446H565L536 1251H330Z" />
<glyph unicode="&#xf0;" horiz-adv-x="1102" d="M489 -20Q361 -20 270 35T130 190T82 422Q82 516 109 622T198 823T359 977T605 1037Q753 1037 830 957T925 732L797 889Q785 1009 736 1114T617 1312T475 1480H658Q763 1397 846 1280T977 1012T1026 681Q1026 558
998 435T906 208T741 43T489 -20ZM509 145Q597 145 655 191T749 310T798 464T813 612Q813 742 758 809T599 877Q512 877 453 833T359 718T309 570T293 423Q293 300 345 223T509 145ZM403 1130L385 1234L1056 1428L1072 1323L403 1130Z" />
<glyph unicode="&#xf1;" horiz-adv-x="1129" d="M73 0L224 1034H427L408 893Q442 935 487 970T592 1026T731 1047Q825 1047 897 1005T1004 881T1023 682L923 0H713L809 660Q825 763 777 818T642 874Q582 874 526 853T430 791T383 688L282 0H73ZM425 1215L405 1327Q444
1361 485 1384T584 1408Q633 1408 674 1394T754 1366T837 1351Q881 1351 917 1369T986 1411L1000 1282Q971 1261 925 1241T817 1221Q765 1221 728 1234T654 1260T573 1274Q526 1274 494 1258T425 1215Z" />
<glyph unicode="&#xf2;" horiz-adv-x="1097" d="M474 -20Q335 -20 240 42T105 224T88 512Q110 675 181 797T366 986T625 1054Q765 1054 859 991T992 806T1008 512Q986 355 916 235T735 48T474 -20ZM500 145Q583 145 645 191T747 322T802 518Q816 621 803 705T741
840T601 890Q516 890 453 845T351 716T296 518Q282 417 295 332T358 196T500 145ZM542 1155L272 1446H501L698 1155H542Z" />
<glyph unicode="&#xf3;" horiz-adv-x="1097" d="M474 -20Q335 -20 240 42T105 224T88 512Q110 675 181 797T366 986T625 1054Q765 1054 859 991T992 806T1008 512Q986 355 916 235T735 48T474 -20ZM500 145Q583 145 645 191T747 322T802 518Q816 621 803 705T741
840T601 890Q516 890 453 845T351 716T296 518Q282 417 295 332T358 196T500 145ZM526 1155L762 1446H996L688 1155H526Z" />
<glyph unicode="&#xf4;" horiz-adv-x="1097" d="M474 -20Q335 -20 240 42T105 224T88 512Q110 675 181 797T366 986T625 1054Q765 1054 859 991T992 806T1008 512Q986 355 916 235T735 48T474 -20ZM500 145Q583 145 645 191T747 322T802 518Q816 621 803 705T741
840T601 890Q516 890 453 845T351 716T296 518Q282 417 295 332T358 196T500 145ZM306 1155L565 1389H713L937 1155H752L632 1288L480 1155H306Z" />
<glyph unicode="&#xf5;" horiz-adv-x="1097" d="M474 -20Q335 -20 240 42T105 224T88 512Q110 675 181 797T366 986T625 1054Q765 1054 859 991T992 806T1008 512Q986 355 916 235T735 48T474 -20ZM500 145Q583 145 645 191T747 322T802 518Q816 621 803 705T741
840T601 890Q516 890 453 845T351 716T296 518Q282 417 295 332T358 196T500 145ZM370 1215L350 1327Q389 1361 430 1384T529 1408Q578 1408 619 1394T699 1366T782 1351Q826 1351 862 1369T931 1411L945 1282Q916 1261 870 1241T762 1221Q710 1221 673 1234T599
1260T518 1274Q471 1274 439 1258T370 1215Z" />
<glyph unicode="&#xf6;" horiz-adv-x="1097" d="M474 -20Q335 -20 240 42T105 224T88 512Q110 675 181 797T366 986T625 1054Q765 1054 859 991T992 806T1008 512Q986 355 916 235T735 48T474 -20ZM500 145Q583 145 645 191T747 322T802 518Q816 621 803 705T741
840T601 890Q516 890 453 845T351 716T296 518Q282 417 295 332T358 196T500 145ZM713 1251L742 1446H948L919 1251H713ZM348 1251L377 1446H583L554 1251H348Z" />
<glyph unicode="&#xf7;" horiz-adv-x="1092" d="M139 645L163 808L1011 809L987 646L139 645ZM383 243L419 485H662L628 243H383ZM491 970L525 1212H770L734 970H491Z" />
<glyph unicode="&#xf8;" horiz-adv-x="1078" d="M62 -12L-19 73L991 1043L1071 958L62 -12ZM439 -20Q300 -20 205 42T70 224T53 512Q76 675 147 797T331 986T590 1054Q730 1054 824 991T957 806T973 512Q951 355 881 235T700 48T439 -20ZM465 145Q548 145 610
191T713 322T767 518Q781 621 768 705T706 840T566 890Q481 890 418 845T316 716T261 518Q247 417 261 332T324 196T465 145Z" />
<glyph unicode="&#xf9;" horiz-adv-x="1137" d="M434 -20Q360 -19 295 3T183 69T114 178T104 329L202 1034H414L318 352Q305 259 351 201T508 143Q609 143 677 198T760 361L855 1034H1065L919 0H756L761 200Q732 119 680 71T564 1T434 -20ZM572 1155L302 1446H531L728
1155H572Z" />
<glyph unicode="&#xfa;" horiz-adv-x="1137" d="M434 -20Q360 -19 295 3T183 69T114 178T104 329L202 1034H414L318 352Q305 259 351 201T508 143Q609 143 677 198T760 361L855 1034H1065L919 0H756L761 200Q732 119 680 71T564 1T434 -20ZM556 1155L792 1446H1026L718
1155H556Z" />
<glyph unicode="&#xfb;" horiz-adv-x="1137" d="M434 -20Q360 -19 295 3T183 69T114 178T104 329L202 1034H414L318 352Q305 259 351 201T508 143Q609 143 677 198T760 361L855 1034H1065L919 0H756L761 200Q732 119 680 71T564 1T434 -20ZM336 1155L595 1389H743L967
1155H782L662 1288L510 1155H336Z" />
<glyph unicode="&#xfc;" horiz-adv-x="1137" d="M434 -20Q360 -19 295 3T183 69T114 178T104 329L202 1034H414L318 352Q305 259 351 201T508 143Q609 143 677 198T760 361L855 1034H1065L919 0H756L761 200Q732 119 680 71T564 1T434 -20ZM743 1251L772 1446H978L949
1251H743ZM378 1251L407 1446H613L584 1251H378Z" />
<glyph unicode="&#xfd;" horiz-adv-x="1042" d="M131 -330Q40 -330 7 -316T-27 -302L-7 -164L94 -166Q171 -170 214 -152T278 -107T312 -57L353 30L115 1034H325L487 270L869 1034H1074L507 -58Q449 -166 389 -225T266 -307T131 -330ZM514 1155L750 1446H984L676
1155H514Z" />
<glyph unicode="&#xfe;" horiz-adv-x="1151" d="M28 -322L284 1446H494L415 895Q445 925 489 962T595 1027T744 1054Q856 1054 937 997T1054 823T1064 529Q1039 349 968 227T795 43T571 -20Q490 -20 430 7T328 79Q311 96 305 94T295 67L238 -322H28ZM524 125Q604
125 670 169T784 302T851 530Q871 666 848 749T772 870T645 908Q578 908 522 878T431 801T387 709L321 242Q361 190 409 158T524 125Z" />
<glyph unicode="&#xff;" horiz-adv-x="1042" d="M131 -330Q40 -330 7 -316T-27 -302L-7 -164L94 -166Q171 -170 214 -152T278 -107T312 -57L353 30L115 1034H325L487 270L869 1034H1074L507 -58Q449 -166 389 -225T266 -307T131 -330ZM701 1251L730 1446H936L907
1251H701ZM336 1251L365 1446H571L542 1251H336Z" />
<glyph unicode="&#x2013;" horiz-adv-x="1094" d="M109 418L133 582L981 583L957 419L109 418Z" />
<glyph unicode="&#x2014;" horiz-adv-x="2252" d="M354 418L377 582L1893 583L1870 419L354 418Z" />
<glyph unicode="&#x2018;" horiz-adv-x="493" d="M163 981L194 1189L413 1481H505L357 1225L445 1218L410 981H163Z" />
<glyph unicode="&#x2019;" horiz-adv-x="481" d="M161 949L309 1204L220 1210L256 1446H503L472 1239L252 949H161Z" />
<glyph unicode="&#x201a;" horiz-adv-x="509" d="M-20 -257L128 -3L38 3L73 241H326L296 33L74 -257H-20Z" />
<glyph unicode="&#x201c;" horiz-adv-x="877" d="M547 978L578 1187L798 1479H889L741 1222L829 1216L794 978H547ZM163 978L194 1187L413 1479H505L357 1222L445 1216L410 978H163Z" />
<glyph unicode="&#x201d;" horiz-adv-x="857" d="M537 949L685 1204L596 1210L632 1446H879L848 1239L628 949H537ZM161 949L309 1204L220 1210L256 1446H503L472 1239L252 949H161Z" />
<glyph unicode="&#x201e;" horiz-adv-x="897" d="M368 -257L516 -3L426 3L461 241H714L684 33L462 -257H368ZM-20 -257L128 -3L38 3L73 241H326L296 33L74 -257H-20Z" />
<glyph unicode="&#x2022;" horiz-adv-x="658" d="M353 524Q294 524 247 552T171 629T142 736Q142 794 170 841T246 917T353 946Q411 946 459 918T535 842T564 736Q564 678 536 630T459 553T353 524Z" />
<glyph unicode="&#x2039;" horiz-adv-x="558" d="M272 137L84 502L382 883H498L263 502L388 137H272Z" />
<glyph unicode="&#x203a;" horiz-adv-x="557" d="M61 137L292 502L167 883H283L469 502L173 137H61Z" />
</font>
</defs>
</svg>
